<svg width="93" height="124" viewBox="0 0 93 124" fill="none" xmlns="http://www.w3.org/2000/svg">
<g clip-path="url(#clip0_958_26)">
<path d="M1.73743 80.1611C-0.551121 77.7588 -0.458202 73.9562 1.9449 71.6677C4.3472 69.3791 8.14971 69.4721 10.4383 71.8752L1.73743 80.1611ZM50.4899 113.929C52.7785 116.332 52.6856 120.134 50.2825 122.423C47.8802 124.711 44.0777 124.618 41.7891 122.215L50.4899 113.929ZM50.4899 122.215C48.2014 124.618 44.3989 124.711 41.9966 122.423C39.5935 120.134 39.5006 116.332 41.7891 113.929L50.4899 122.215ZM81.8408 71.8752C84.129 69.4721 87.9318 69.3791 90.3345 71.6677C92.7372 73.9562 92.8299 77.7588 90.5416 80.1611L81.8408 71.8752ZM52.1473 118.072C52.1473 121.39 49.4574 124.08 46.1395 124.08C42.8216 124.08 40.1318 121.39 40.1318 118.072H52.1473ZM40.1318 5.92767C40.1318 2.60971 42.8216 -0.0800781 46.1395 -0.0800781C49.4574 -0.0800781 52.1473 2.60971 52.1473 5.92767H40.1318ZM10.4383 71.8752L50.4899 113.929L41.7891 122.215L1.73743 80.1611L10.4383 71.8752ZM41.7891 113.929L81.8408 71.8752L90.5416 80.1611L50.4899 122.215L41.7891 113.929ZM40.1318 118.072V5.92767H52.1473V118.072H40.1318Z" fill="white"/>
</g>
<defs>
<clipPath id="clip0_958_26">
<rect width="92.2791" height="124" fill="white" transform="matrix(-1 0 0 1 92.2791 0)"/>
</clipPath>
</defs>
</svg>
