<svg width="60" height="75" viewBox="0 0 60 75" fill="none" xmlns="http://www.w3.org/2000/svg">
<g clip-path="url(#clip0_778_38)">
<path fill-rule="evenodd" clip-rule="evenodd" d="M8.44674 0.380949C5.40854 0.781136 3.79965 1.51314 2.65368 2.63585C1.50775 3.75859 0.760621 5.33483 0.352141 8.3115C-0.0683468 11.3756 -0.0749512 15.4367 -0.0749512 21.2596V53.4117C1.38347 52.4132 3.02726 51.6533 4.79931 51.1884C6.78118 50.668 9.09222 50.6687 12.479 50.6699H59.9626V21.2596C59.9626 15.4367 59.9558 11.3756 59.5356 8.31146C59.1269 5.33483 58.3798 3.75859 57.2339 2.63585C56.0879 1.51314 54.4793 0.781136 51.441 0.380949C48.3134 -0.0310214 44.1682 -0.0374756 38.2249 -0.0374756H21.6628C15.7194 -0.0374756 11.5743 -0.0310214 8.44674 0.380949ZM10.2763 17.203C10.2763 15.5228 11.6667 14.1606 13.3817 14.1606H46.5059C48.2211 14.1606 49.6114 15.5228 49.6114 17.203C49.6114 18.8833 48.2211 20.2455 46.5059 20.2455H13.3817C11.6667 20.2455 10.2763 18.8833 10.2763 17.203ZM13.3817 28.3587C11.6667 28.3587 10.2763 29.7208 10.2763 31.4012C10.2763 33.0815 11.6667 34.4436 13.3817 34.4436H34.0841C35.7993 34.4436 37.1896 33.0815 37.1896 31.4012C37.1896 29.7208 35.7993 28.3587 34.0841 28.3587H13.3817Z" fill="white"/>
<path d="M17.5221 56.7546H12.9583C8.9078 56.7546 7.49174 56.7809 6.4066 57.0657C3.42825 57.8477 1.05388 60.0166 0.0356445 62.8361C0.0986089 64.271 0.197258 65.5333 0.351967 66.6605C0.760448 69.6372 1.50758 71.2136 2.65351 72.3363C3.79947 73.459 5.40836 74.1907 8.44656 74.591C11.5741 75.0031 15.7192 75.0094 21.6626 75.0094H38.2247C44.168 75.0094 48.3132 75.0031 51.4408 74.591C54.4791 74.1907 56.0877 73.459 57.2337 72.3363C58.3797 71.2136 59.1267 69.6372 59.5354 66.6605C59.8783 64.1606 59.9459 60.997 59.959 56.7546H34.084V68.0364C34.084 69.1546 34.084 69.7134 33.6915 69.9393C33.2986 70.1652 32.7616 69.9152 31.6873 69.4154L26.5436 67.0218C26.1804 66.8526 25.9984 66.7682 25.8033 66.7682C25.6078 66.7682 25.4258 66.8526 25.0626 67.0218L19.9189 69.4154C18.8447 69.9152 18.3076 70.1652 17.9148 69.9393C17.5221 69.7134 17.5221 69.1546 17.5221 68.0364V56.7546Z" fill="white"/>
</g>
<defs>
<clipPath id="clip0_778_38">
<rect width="60" height="74.9719" fill="white"/>
</clipPath>
</defs>
</svg>
