<svg width="60" height="62" viewBox="0 0 60 62" fill="none" xmlns="http://www.w3.org/2000/svg">
<g clip-path="url(#clip0_750_42)">
<path d="M35.7358 58.7568H47.1472C50.5109 58.7568 52.1928 58.7568 53.4775 58.1022C54.6076 57.5265 55.5264 56.6076 56.1022 55.4775C56.7568 54.1929 56.7568 52.5109 56.7568 49.1472V20.3184C56.7568 16.9547 56.7568 15.2728 56.1022 13.9881C55.5264 12.858 54.6076 11.9392 53.4775 11.3634C52.1928 10.7088 50.5109 10.7088 47.1472 10.7088H12.3124C8.94873 10.7088 7.26674 10.7088 5.98206 11.3634C4.85203 11.9392 3.93312 12.858 3.35744 13.9881C2.70279 15.2728 2.70278 16.9547 2.70278 20.3184V25.7238M44.7448 4.70276V10.7088M14.7148 4.70276V10.7088M56.7568 22.7208H2.70278M25.2253 34.7331L44.7448 34.7328M35.7358 46.7451L44.7448 46.7448M23.7238 58.7568L17.6427 57.5406C17.1127 57.4346 16.8475 57.3814 16.6004 57.2844C16.3809 57.1986 16.1722 57.0868 15.9791 56.952C15.761 56.8001 15.5701 56.6091 15.1875 56.2265L2.70278 43.7418C1.04423 42.0832 1.04423 39.3944 2.70278 37.7358C4.36134 36.0772 7.05023 36.0772 8.70879 37.7358L21.1935 50.2205C21.5761 50.6031 21.767 50.7941 21.919 51.0121C22.0538 51.2052 22.1655 51.4139 22.2514 51.6334C22.3484 51.8805 22.4016 52.1457 22.5076 52.6757L23.7238 58.7568Z" stroke="white" stroke-width="6.00601" stroke-linecap="round" stroke-linejoin="round"/>
</g>
<defs>
<clipPath id="clip0_750_42">
<rect width="60" height="61.2613" fill="white" transform="matrix(-1 0 0 1 60 0.73877)"/>
</clipPath>
</defs>
</svg>
