<svg width="400" height="400" viewBox="0 0 400 400" fill="none" xmlns="http://www.w3.org/2000/svg">
<path d="M123.764 72.4977C119.12 72.9878 116.299 78.0496 115.874 82.2739C115.782 83.1934 115.719 84.0743 115.828 84.9927C116.18 87.9546 118.331 91.5655 121.785 91.201C123.223 91.0493 124.561 90.2879 125.664 89.3864C128.706 86.9003 130.093 82.5284 129.689 78.7028C129.372 75.7014 127.267 72.128 123.764 72.4977ZM105.16 70.821C102.68 71.0827 100.811 73.1545 100.092 75.434C98.9616 79.0155 99.41 83.4032 101.639 86.4836C102.938 88.2789 104.979 90.0292 107.341 89.7482C109.741 89.4627 111.418 87.4742 112.197 85.3084C113.478 81.7473 112.921 77.355 110.852 74.1819C109.698 72.4115 107.423 70.5821 105.16 70.821ZM134.116 88.5182C129.393 88.953 125.734 93.5247 125.274 98.1012C124.978 101.043 126.019 104.272 129.139 105.12C129.569 105.237 130.133 105.266 130.588 105.218C135.498 104.699 138.707 99.9311 139.171 95.3166C139.474 92.3087 137.726 88.1859 134.116 88.5182ZM92.4109 85.3932C91.8668 85.4507 91.3158 85.5963 90.8137 85.8C88.6438 86.6803 87.9619 89.01 87.75 91.1171C87.3546 95.0477 89.0297 99.2664 92.4514 101.43C93.6065 102.161 94.927 102.754 96.3268 102.55C99.1492 102.138 100.433 99.4439 100.689 96.8929C101.047 93.3394 99.7556 89.7218 97.0819 87.3059C95.8125 86.1589 94.199 85.2045 92.4109 85.3932ZM112.81 97.269C112.162 97.3287 111.509 97.2864 110.855 97.3642C109.435 97.5332 108.061 97.9612 106.753 98.4917C104.461 99.4217 102.738 101.053 101.125 102.87C99.42 104.792 98.0521 106.883 96.8943 109.156C95.4882 111.916 93.9413 115.768 96.5873 118.333C98.3808 120.072 100.762 120.032 103.071 119.634C106.5 119.043 109.882 117.503 113.427 118.211C115.659 118.657 117.682 119.87 119.672 120.914C121.298 121.767 122.893 122.535 124.781 122.336C125.349 122.276 125.957 122.166 126.476 121.923C129.874 120.331 129.347 116.235 128.301 113.288C127.588 111.276 126.613 109.331 125.531 107.465C123.908 104.664 122.175 101.982 119.645 99.9019C118.142 98.6658 116.533 97.8968 114.633 97.5173C114.038 97.3985 113.431 97.2119 112.81 97.269Z" fill="#E8F6FF"/>
<path d="M202.969 35.0986C198.398 36.0509 196.098 41.3696 196.098 45.6152C196.098 46.5393 196.123 47.4221 196.324 48.325C196.971 51.2368 199.473 54.6143 202.873 53.906C204.288 53.6111 205.543 52.7197 206.55 51.7123C209.328 48.9342 210.27 44.4455 209.486 40.6795C208.87 37.7249 206.418 34.3802 202.969 35.0986ZM184.291 35.2922C181.85 35.8007 180.198 38.0491 179.71 40.3892C178.944 44.0658 179.829 48.3866 182.355 51.2284C183.828 52.8847 186.033 54.4221 188.356 53.906C190.715 53.3817 192.185 51.2354 192.743 49.0025C193.661 45.3311 192.668 41.0166 190.291 38.0665C188.965 36.4205 186.519 34.8279 184.291 35.2922ZM214.873 50.0026C210.217 50.9079 207.034 55.8228 207.034 60.4224C207.034 63.379 208.393 66.4879 211.583 67.0195C212.023 67.0928 212.587 67.0644 213.034 66.9711C217.867 65.9642 220.583 60.8987 220.583 56.2609C220.583 53.2378 218.432 49.3106 214.873 50.0026ZM173.065 51.0671C172.529 51.1787 171.995 51.3788 171.516 51.6317C169.445 52.7247 169 55.1109 169 57.2287C169 61.1792 171.089 65.209 174.71 67.0195C175.932 67.6307 177.306 68.0884 178.678 67.7453C181.445 67.0536 182.452 64.2445 182.452 61.6805C182.452 58.1092 180.806 54.6389 177.904 52.5027C176.526 51.4884 174.825 50.7004 173.065 51.0671ZM194.55 60.8418C193.911 60.966 193.257 60.9892 192.614 61.1321C191.218 61.4424 189.894 62.0057 188.646 62.6645C186.458 63.8192 184.907 65.6147 183.485 67.584C181.98 69.6673 180.828 71.8844 179.904 74.2618C178.781 77.1491 177.627 81.1361 180.517 83.4235C182.475 84.974 184.84 84.6958 187.098 84.0687C190.45 83.1375 193.662 81.2672 197.259 81.617C199.525 81.8373 201.659 82.8421 203.744 83.6816C205.447 84.3676 207.111 84.9721 208.97 84.5849C209.529 84.4685 210.122 84.2984 210.615 84.0042C213.836 82.0803 212.902 78.0576 211.567 75.2296C210.655 73.299 209.49 71.4614 208.228 69.7132C206.332 67.089 204.339 64.5938 201.615 62.7774C199.995 61.6979 198.317 61.0938 196.388 60.9063C195.785 60.8476 195.162 60.7227 194.55 60.8418Z" fill="#E8F6FF"/>
<path d="M263.688 58.9356C259.555 61.1075 258.805 66.8536 259.972 70.9357C260.226 71.8242 260.493 72.6661 260.934 73.4791C262.356 76.101 265.69 78.6608 268.764 77.0453C270.044 76.3729 271.006 75.1709 271.697 73.9254C273.605 70.4909 273.277 65.9161 271.488 62.5107C270.084 59.839 266.807 57.2971 263.688 58.9356ZM245.783 64.2551C243.575 65.4149 242.605 68.0309 242.779 70.4148C243.053 74.1604 245.092 78.0715 248.301 80.1097C250.172 81.2976 252.715 82.1695 254.806 81.035C256.931 79.8827 257.754 77.415 257.677 75.1146C257.551 71.3324 255.41 67.4569 252.314 65.2735C250.587 64.0553 247.797 63.1964 245.783 64.2551ZM279.23 69.9941C275.002 72.1441 273.292 77.7447 274.556 82.1671C275.369 85.0099 277.53 87.6256 280.743 87.2601C281.186 87.2097 281.72 87.0274 282.125 86.8146C286.496 84.5182 287.715 78.9014 286.44 74.4422C285.609 71.5355 282.461 68.3508 279.23 69.9941ZM239.324 82.508C238.84 82.7625 238.381 83.1015 237.99 83.4764C236.299 85.0965 236.527 87.5132 237.109 89.5494C238.195 93.3478 241.311 96.6483 245.29 97.3939C246.633 97.6456 248.08 97.7083 249.305 97.0013C251.775 95.5757 251.972 92.5979 251.267 90.1327C250.285 86.6989 247.749 83.8148 244.371 82.5584C242.768 81.9619 240.916 81.6716 239.324 82.508ZM262.668 86.0015C262.088 86.2966 261.466 86.4985 260.887 86.8126C259.629 87.4947 258.512 88.4 257.493 89.3765C255.706 91.0881 254.708 93.2408 253.882 95.5252C253.008 97.9417 252.51 100.39 252.274 102.93C251.988 106.015 251.975 110.165 255.382 111.57C257.691 112.523 259.888 111.606 261.886 110.382C264.854 108.565 267.428 105.884 270.983 105.232C273.222 104.821 275.55 105.201 277.785 105.435C279.611 105.627 281.377 105.75 283.058 104.867C283.563 104.602 284.088 104.275 284.48 103.857C287.049 101.122 285.045 97.5105 282.984 95.1585C281.577 93.5528 279.952 92.106 278.257 90.7721C275.714 88.7699 273.112 86.9186 269.993 85.9209C268.139 85.328 266.359 85.2085 264.454 85.5582C263.857 85.6676 263.224 85.7187 262.668 86.0015Z" fill="#E8F6FF"/>
<path d="M315.822 119.383C311.218 120.162 308.718 125.39 308.557 129.633C308.522 130.556 308.514 131.439 308.681 132.349C309.217 135.283 311.589 138.753 315.013 138.174C316.439 137.932 317.727 137.089 318.771 136.121C321.653 133.45 322.764 129 322.122 125.207C321.619 122.231 319.295 118.796 315.822 119.383ZM297.149 118.87C294.691 119.286 292.955 121.47 292.379 123.79C291.474 127.435 292.196 131.787 294.612 134.722C296.021 136.433 298.167 138.052 300.507 137.625C302.884 137.19 304.434 135.101 305.077 132.891C306.133 129.256 305.303 124.907 303.04 121.87C301.778 120.175 299.393 118.491 297.149 118.87ZM327.153 134.727C322.466 135.455 319.099 140.246 318.926 144.843C318.814 147.797 320.054 150.955 323.221 151.607C323.658 151.697 324.223 151.69 324.674 151.614C329.541 150.79 332.447 145.831 332.622 141.197C332.737 138.176 330.735 134.17 327.153 134.727ZM285.334 134.209C284.795 134.301 284.254 134.48 283.766 134.715C281.655 135.729 281.119 138.097 281.039 140.213C280.89 144.16 282.825 148.266 286.375 150.213C287.573 150.87 288.928 151.379 290.313 151.088C293.104 150.501 294.217 147.732 294.314 145.17C294.449 141.601 292.935 138.071 290.115 135.827C288.777 134.761 287.107 133.909 285.334 134.209ZM306.434 144.79C305.791 144.89 305.137 144.888 304.489 145.007C303.082 145.264 301.738 145.777 300.466 146.388C298.236 147.459 296.618 149.194 295.122 151.109C293.54 153.133 292.305 155.305 291.291 157.646C290.06 160.489 288.756 164.429 291.557 166.824C293.456 168.448 295.829 168.259 298.109 167.718C301.494 166.914 304.774 165.167 308.356 165.652C310.612 165.958 312.707 167.043 314.758 167.961C316.434 168.711 318.074 169.378 319.946 169.061C320.509 168.966 321.108 168.818 321.612 168.543C324.904 166.742 324.122 162.687 322.895 159.811C322.057 157.847 320.962 155.967 319.767 154.172C317.972 151.478 316.075 148.909 313.421 146.991C311.843 145.851 310.189 145.184 308.269 144.924C307.668 144.842 307.051 144.694 306.434 144.79Z" fill="#E8F6FF"/>
<path d="M341.823 200.755C337.184 200.225 333.331 204.553 331.998 208.584C331.708 209.461 331.455 210.307 331.362 211.228C331.062 214.195 332.378 218.187 335.828 218.582C337.264 218.746 338.736 218.294 340.008 217.653C343.518 215.888 345.821 211.922 346.259 208.1C346.601 205.101 345.323 201.156 341.823 200.755ZM324.028 195.077C321.551 194.793 319.276 196.41 318.079 198.478C316.197 201.729 315.682 206.109 317.188 209.6C318.066 211.635 319.678 213.787 322.045 214.026C324.449 214.268 326.519 212.692 327.75 210.747C329.773 207.549 330.185 203.141 328.854 199.594C328.112 197.615 326.289 195.335 324.028 195.077ZM348.447 218.642C343.743 218.041 339.178 221.708 337.734 226.075C336.806 228.882 337.121 232.261 339.982 233.767C340.377 233.974 340.921 234.124 341.376 234.176C346.281 234.737 350.449 230.78 351.905 226.377C352.853 223.506 352.043 219.102 348.447 218.642ZM308.418 206.531C307.874 206.469 307.304 206.491 306.77 206.581C304.461 206.969 303.289 209.095 302.624 211.105C301.384 214.856 302.103 219.338 304.973 222.194C305.942 223.158 307.102 224.023 308.512 224.128C311.357 224.34 313.195 221.989 314 219.554C315.12 216.164 314.646 212.352 312.561 209.413C311.572 208.017 310.204 206.735 308.418 206.531ZM325.749 222.555C325.103 222.472 324.475 222.289 323.82 222.223C322.397 222.08 320.963 222.199 319.572 222.433C317.132 222.842 315.095 224.06 313.127 225.484C311.044 226.989 309.255 228.733 307.631 230.7C305.659 233.089 303.312 236.513 305.337 239.591C306.71 241.678 309.043 242.156 311.383 242.269C314.859 242.437 318.495 241.67 321.801 243.131C323.883 244.051 325.594 245.675 327.31 247.126C328.711 248.312 330.102 249.409 331.988 249.624C332.555 249.689 333.172 249.714 333.733 249.589C337.395 248.774 337.77 244.661 337.39 241.557C337.13 239.438 336.601 237.327 335.951 235.271C334.976 232.185 333.866 229.19 331.849 226.61C330.651 225.077 329.246 223.977 327.474 223.193C326.92 222.948 326.368 222.634 325.749 222.555Z" fill="#E8F6FF"/>
<path d="M263.823 164.755C259.184 164.225 255.331 168.553 253.998 172.584C253.708 173.461 253.455 174.307 253.362 175.228C253.062 178.195 254.378 182.187 257.828 182.582C259.264 182.746 260.736 182.294 262.008 181.653C265.518 179.888 267.821 175.922 268.259 172.1C268.601 169.101 267.323 165.156 263.823 164.755ZM246.028 159.077C243.551 158.793 241.276 160.41 240.079 162.478C238.197 165.729 237.682 170.109 239.188 173.6C240.066 175.635 241.678 177.787 244.045 178.026C246.449 178.268 248.519 176.692 249.75 174.747C251.773 171.549 252.185 167.141 250.854 163.594C250.112 161.615 248.289 159.335 246.028 159.077ZM270.447 182.642C265.743 182.041 261.178 185.708 259.734 190.075C258.806 192.882 259.121 196.261 261.982 197.767C262.377 197.974 262.921 198.124 263.376 198.176C268.281 198.737 272.449 194.78 273.905 190.377C274.853 187.506 274.043 183.102 270.447 182.642ZM230.418 170.531C229.874 170.469 229.304 170.491 228.77 170.581C226.461 170.969 225.289 173.095 224.624 175.105C223.384 178.856 224.103 183.338 226.973 186.194C227.942 187.158 229.102 188.023 230.512 188.128C233.357 188.34 235.195 185.989 236 183.554C237.12 180.164 236.646 176.352 234.561 173.413C233.572 172.017 232.204 170.735 230.418 170.531ZM247.749 186.555C247.103 186.472 246.475 186.289 245.82 186.223C244.397 186.08 242.963 186.199 241.572 186.433C239.132 186.842 237.095 188.06 235.127 189.484C233.044 190.989 231.255 192.733 229.631 194.7C227.659 197.089 225.312 200.513 227.337 203.591C228.71 205.678 231.043 206.156 233.383 206.269C236.859 206.437 240.495 205.67 243.801 207.131C245.883 208.051 247.594 209.675 249.31 211.126C250.711 212.312 252.102 213.409 253.988 213.624C254.555 213.689 255.172 213.714 255.733 213.589C259.395 212.774 259.77 208.661 259.39 205.557C259.13 203.438 258.601 201.327 257.951 199.271C256.976 196.185 255.866 193.19 253.849 190.61C252.651 189.077 251.246 187.977 249.474 187.193C248.92 186.948 248.368 186.634 247.749 186.555Z" fill="#E8F6FF"/>
<path d="M203.87 105.499C199.389 106.811 197.519 112.296 197.856 116.528C197.93 117.449 198.025 118.327 198.297 119.212C199.173 122.063 201.936 125.231 205.269 124.254C206.656 123.848 207.836 122.859 208.76 121.775C211.308 118.785 211.891 114.236 210.809 110.544C209.961 107.647 207.25 104.508 203.87 105.499ZM185.266 107.177C182.873 107.878 181.405 110.25 181.105 112.622C180.634 116.348 181.859 120.584 184.603 123.216C186.203 124.75 188.524 126.107 190.798 125.408C193.108 124.698 194.402 122.442 194.781 120.172C195.404 116.439 194.071 112.217 191.468 109.465C190.015 107.93 187.45 106.537 185.266 107.177ZM216.921 119.409C212.352 120.682 209.569 125.834 209.935 130.419C210.17 133.366 211.772 136.357 214.994 136.634C215.438 136.672 215.998 136.599 216.437 136.47C221.175 135.082 223.479 129.817 223.11 125.194C222.87 122.18 220.413 118.436 216.921 119.409ZM175.329 123.794C174.804 123.948 174.288 124.19 173.831 124.48C171.853 125.734 171.599 128.148 171.767 130.259C172.081 134.197 174.484 138.048 178.238 139.565C179.505 140.077 180.91 140.424 182.251 139.973C184.954 139.064 185.735 136.183 185.531 133.628C185.247 130.068 183.33 126.739 180.267 124.84C178.813 123.939 177.055 123.289 175.329 123.794ZM197.523 131.83C196.896 132.004 196.247 132.079 195.617 132.273C194.25 132.693 192.975 133.36 191.783 134.116C189.694 135.441 188.291 137.354 187.029 139.43C185.695 141.627 184.723 143.928 183.991 146.372C183.101 149.339 182.268 153.405 185.33 155.456C187.406 156.846 189.741 156.38 191.942 155.576C195.209 154.381 198.262 152.261 201.876 152.324C204.152 152.363 206.36 153.195 208.504 153.866C210.256 154.415 211.963 154.885 213.785 154.351C214.333 154.191 214.912 153.974 215.379 153.642C218.437 151.468 217.186 147.532 215.63 144.819C214.568 142.967 213.261 141.228 211.863 139.586C209.766 137.12 207.58 134.792 204.72 133.198C203.02 132.25 201.298 131.781 199.361 131.748C198.755 131.737 198.124 131.662 197.523 131.83Z" fill="#E8F6FF"/>
<path d="M90.7977 238.211C86.3532 239.642 84.6295 245.174 85.0794 249.396C85.1773 250.315 85.2958 251.19 85.591 252.067C86.543 254.894 89.3885 257.987 92.6942 256.922C94.0702 256.479 95.2237 255.46 96.1187 254.351C98.5868 251.295 99.048 246.731 97.8688 243.07C96.9436 240.197 94.1506 237.131 90.7977 238.211ZM72.245 240.382C69.8717 241.146 68.4668 243.557 68.23 245.936C67.8579 249.673 69.1959 253.876 72.0089 256.434C73.6483 257.925 76.0044 259.22 78.2591 258.461C80.5493 257.689 81.7837 255.399 82.1021 253.12C82.6258 249.372 81.1811 245.187 78.5055 242.505C77.0126 241.009 74.4115 239.684 72.245 240.382ZM104.214 251.769C99.6799 253.163 97.0354 258.387 97.5227 262.961C97.836 265.901 99.517 268.849 102.745 269.039C103.19 269.065 103.748 268.977 104.183 268.837C108.882 267.324 111.046 261.999 110.555 257.388C110.234 254.381 107.679 250.704 104.214 251.769ZM62.7533 257.258C62.2325 257.426 61.723 257.681 61.2734 257.983C59.3298 259.29 59.1399 261.71 59.3643 263.815C59.7829 267.744 62.287 271.529 66.0795 272.946C67.3598 273.424 68.7738 273.734 70.102 273.247C72.7803 272.266 73.4842 269.366 73.2126 266.817C72.8342 263.266 70.8292 259.989 67.7171 258.173C66.2396 257.31 64.4648 256.707 62.7533 257.258ZM85.153 264.701C84.5308 264.892 83.8834 264.985 83.259 265.195C81.9035 265.651 80.6472 266.352 79.4758 267.139C77.4225 268.519 76.0702 270.469 74.8646 272.578C73.5892 274.809 72.6789 277.135 72.0115 279.597C71.2009 282.587 70.4762 286.674 73.5917 288.643C75.7034 289.977 78.0255 289.45 80.204 288.587C83.439 287.306 86.4342 285.106 90.0488 285.072C92.3251 285.051 94.5537 285.824 96.7153 286.438C98.4815 286.94 100.2 287.365 102.008 286.783C102.551 286.608 103.123 286.376 103.582 286.031C106.581 283.776 105.226 279.875 103.599 277.205C102.488 275.382 101.135 273.678 99.6941 272.073C97.5314 269.665 95.285 267.395 92.3832 265.877C90.6586 264.975 88.9255 264.552 86.9883 264.57C86.3819 264.576 85.7493 264.518 85.153 264.701Z" fill="#E8F6FF"/>
<path d="M152.789 299.964C148.344 301.396 146.62 306.928 147.07 311.15C147.168 312.069 147.287 312.944 147.582 313.82C148.534 316.647 151.379 319.741 154.685 318.676C156.061 318.233 157.215 317.214 158.11 316.105C160.578 313.048 161.039 308.485 159.86 304.823C158.935 301.951 156.142 298.885 152.789 299.964ZM134.236 302.136C131.863 302.9 130.458 305.311 130.221 307.69C129.849 311.427 131.187 315.629 134 318.188C135.639 319.679 137.995 320.974 140.25 320.214C142.54 319.443 143.775 317.153 144.093 314.874C144.617 311.126 143.172 306.941 140.496 304.259C139.004 302.763 136.403 301.438 134.236 302.136ZM166.205 313.523C161.671 314.917 159.026 320.141 159.514 324.715C159.827 327.655 161.508 330.602 164.736 330.793C165.181 330.819 165.739 330.731 166.174 330.591C170.873 329.078 173.037 323.753 172.546 319.141C172.225 316.135 169.67 312.458 166.205 313.523ZM124.744 319.012C124.223 319.179 123.714 319.435 123.264 319.737C121.321 321.043 121.131 323.463 121.355 325.569C121.774 329.497 124.278 333.283 128.071 334.7C129.351 335.178 130.765 335.488 132.093 335.001C134.771 334.02 135.475 331.12 135.204 328.571C134.825 325.019 132.82 321.743 129.708 319.926C128.231 319.064 126.456 318.46 124.744 319.012ZM147.144 326.455C146.522 326.646 145.874 326.738 145.25 326.949C143.895 327.405 142.638 328.105 141.467 328.893C139.413 330.273 138.061 332.223 136.856 334.331C135.58 336.562 134.67 338.889 134.002 341.351C133.192 344.341 132.467 348.428 135.583 350.396C137.694 351.73 140.016 351.203 142.195 350.341C145.43 349.059 148.425 346.859 152.04 346.826C154.316 346.805 156.545 347.578 158.706 348.192C160.472 348.693 162.191 349.118 163.999 348.536C164.542 348.361 165.114 348.129 165.573 347.785C168.572 345.53 167.217 341.629 165.59 338.958C164.479 337.135 163.126 335.432 161.685 333.827C159.522 331.418 157.276 329.148 154.374 327.631C152.65 326.729 150.916 326.306 148.979 326.324C148.373 326.33 147.74 326.271 147.144 326.455Z" fill="#E8F6FF"/>
<path d="M250.789 229.964C246.344 231.396 244.62 236.928 245.07 241.15C245.168 242.069 245.287 242.944 245.582 243.82C246.534 246.647 249.379 249.741 252.685 248.676C254.061 248.233 255.215 247.214 256.11 246.105C258.578 243.048 259.039 238.485 257.86 234.823C256.935 231.951 254.142 228.885 250.789 229.964ZM232.236 232.136C229.863 232.9 228.458 235.311 228.221 237.69C227.849 241.427 229.187 245.629 232 248.188C233.639 249.679 235.995 250.974 238.25 250.214C240.54 249.443 241.775 247.153 242.093 244.874C242.617 241.126 241.172 236.941 238.496 234.259C237.004 232.763 234.403 231.438 232.236 232.136ZM264.205 243.523C259.671 244.917 257.026 250.141 257.514 254.715C257.827 257.655 259.508 260.602 262.736 260.793C263.181 260.819 263.739 260.731 264.174 260.591C268.873 259.078 271.037 253.753 270.546 249.141C270.225 246.135 267.67 242.458 264.205 243.523ZM222.744 249.012C222.223 249.179 221.714 249.435 221.264 249.737C219.321 251.043 219.131 253.463 219.355 255.569C219.774 259.497 222.278 263.283 226.071 264.7C227.351 265.178 228.765 265.488 230.093 265.001C232.771 264.02 233.475 261.12 233.204 258.571C232.825 255.019 230.82 251.743 227.708 249.926C226.231 249.064 224.456 248.46 222.744 249.012ZM245.144 256.455C244.522 256.646 243.874 256.738 243.25 256.949C241.895 257.405 240.638 258.105 239.467 258.893C237.413 260.273 236.061 262.223 234.856 264.331C233.58 266.562 232.67 268.889 232.002 271.351C231.192 274.341 230.467 278.428 233.583 280.396C235.694 281.73 238.016 281.203 240.195 280.341C243.43 279.059 246.425 276.859 250.04 276.826C252.316 276.805 254.545 277.578 256.706 278.192C258.472 278.693 260.191 279.118 261.999 278.536C262.542 278.361 263.114 278.129 263.573 277.785C266.572 275.53 265.217 271.629 263.59 268.958C262.479 267.135 261.126 265.432 259.685 263.827C257.522 261.418 255.276 259.148 252.374 257.631C250.65 256.729 248.916 256.306 246.979 256.324C246.373 256.33 245.74 256.271 245.144 256.455Z" fill="#E8F6FF"/>
<path d="M146.789 159.964C142.344 161.396 140.62 166.928 141.07 171.15C141.168 172.069 141.287 172.944 141.582 173.82C142.534 176.647 145.379 179.741 148.685 178.676C150.061 178.233 151.215 177.214 152.11 176.105C154.578 173.048 155.039 168.485 153.86 164.823C152.935 161.951 150.142 158.885 146.789 159.964ZM128.236 162.136C125.863 162.9 124.458 165.311 124.221 167.69C123.849 171.427 125.187 175.629 128 178.188C129.639 179.679 131.995 180.974 134.25 180.214C136.54 179.443 137.775 177.153 138.093 174.874C138.617 171.126 137.172 166.941 134.496 164.259C133.004 162.763 130.403 161.438 128.236 162.136ZM160.205 173.523C155.671 174.917 153.026 180.141 153.514 184.715C153.827 187.655 155.508 190.602 158.736 190.793C159.181 190.819 159.739 190.731 160.174 190.591C164.873 189.078 167.037 183.753 166.546 179.141C166.225 176.135 163.67 172.458 160.205 173.523ZM118.744 179.012C118.223 179.179 117.714 179.435 117.264 179.737C115.321 181.043 115.131 183.463 115.355 185.569C115.774 189.497 118.278 193.283 122.071 194.7C123.351 195.178 124.765 195.488 126.093 195.001C128.771 194.02 129.475 191.12 129.204 188.571C128.825 185.019 126.82 181.743 123.708 179.926C122.231 179.064 120.456 178.46 118.744 179.012ZM141.144 186.455C140.522 186.646 139.874 186.738 139.25 186.949C137.895 187.405 136.638 188.105 135.467 188.893C133.413 190.273 132.061 192.223 130.856 194.331C129.58 196.562 128.67 198.889 128.002 201.351C127.192 204.341 126.467 208.428 129.583 210.396C131.694 211.73 134.016 211.203 136.195 210.341C139.43 209.059 142.425 206.859 146.04 206.826C148.316 206.805 150.545 207.578 152.706 208.192C154.472 208.693 156.191 209.118 157.999 208.536C158.542 208.361 159.114 208.129 159.573 207.785C162.572 205.53 161.217 201.629 159.59 198.958C158.479 197.135 157.126 195.432 155.685 193.827C153.522 191.418 151.276 189.148 148.374 187.631C146.65 186.729 144.916 186.306 142.979 186.324C142.373 186.33 141.74 186.271 141.144 186.455Z" fill="#E8F6FF"/>
<path d="M69.5863 152.785C66.0819 155.87 66.7085 161.631 68.8053 165.323C69.2617 166.126 69.7196 166.881 70.34 167.567C72.3407 169.78 76.1841 171.481 78.7906 169.186C79.8755 168.231 80.5265 166.836 80.905 165.462C81.9486 161.675 80.551 157.306 78.0089 154.419C76.0144 152.154 72.2301 150.457 69.5863 152.785ZM53.4404 162.178C51.5691 163.825 51.2427 166.596 51.9745 168.872C53.1242 172.447 56.0278 175.767 59.6278 176.991C61.726 177.704 64.4031 177.951 66.1676 176.356C67.96 174.735 68.1783 172.142 67.5609 169.925C66.5458 166.279 63.5515 163.018 60.0281 161.627C58.0622 160.85 55.1487 160.673 53.4404 162.178ZM87.2977 159.865C83.6964 162.952 83.3558 168.798 85.6274 172.797C87.0875 175.368 89.8048 177.4 92.8407 176.287C93.2594 176.134 93.7357 175.83 94.0791 175.528C97.7843 172.266 97.644 166.52 95.3536 162.487C93.8605 159.858 90.0504 157.506 87.2977 159.865ZM51.4695 181.439C51.0588 181.8 50.6936 182.238 50.4018 182.694C49.1408 184.668 49.9322 186.962 50.9781 188.804C52.9291 192.239 56.7357 194.711 60.7784 194.497C62.1433 194.425 63.5634 194.145 64.5872 193.169C66.6516 191.201 66.1402 188.261 64.8739 186.031C63.1101 182.926 59.9645 180.722 56.3861 180.297C54.6871 180.096 52.8189 180.251 51.4695 181.439ZM74.9788 179.328C74.4846 179.751 73.9278 180.094 73.4391 180.536C72.3783 181.495 71.5057 182.639 70.7456 183.828C69.4134 185.913 68.9513 188.24 68.6871 190.655C68.4077 193.209 68.5012 195.706 68.8714 198.23C69.321 201.295 70.2869 205.332 73.9291 205.894C76.3977 206.275 78.3167 204.865 79.9701 203.204C82.4253 200.739 84.2942 197.527 87.5953 196.054C89.6742 195.127 92.0262 194.946 94.2532 194.647C96.0729 194.402 97.8186 194.106 99.2435 192.851C99.6719 192.474 100.104 192.033 100.387 191.534C102.238 188.27 99.4392 185.234 96.8814 183.434C95.1352 182.206 93.215 181.183 91.2537 180.286C88.3097 178.941 85.3442 177.755 82.0779 177.521C80.1367 177.382 78.3788 177.686 76.6096 178.475C76.0558 178.723 75.4525 178.922 74.9788 179.328Z" fill="#E8F6FF"/>
<path d="M176.962 222.513C172.415 223.573 170.241 228.944 170.34 233.189C170.362 234.112 170.408 234.994 170.63 235.892C171.345 238.788 173.926 242.106 177.308 241.318C178.716 240.99 179.95 240.069 180.933 239.038C183.645 236.195 184.481 231.686 183.608 227.939C182.923 225 180.393 221.714 176.962 222.513ZM158.294 223.146C155.865 223.712 154.266 225.999 153.834 228.35C153.155 232.043 154.142 236.342 156.734 239.124C158.245 240.745 160.486 242.23 162.795 241.659C165.141 241.08 166.561 238.899 167.066 236.654C167.897 232.962 166.803 228.672 164.358 225.779C162.993 224.164 160.51 222.63 158.294 223.146ZM189.214 237.133C184.58 238.147 181.514 243.136 181.622 247.734C181.692 250.69 183.124 253.766 186.325 254.223C186.766 254.285 187.329 254.244 187.775 254.14C192.583 253.02 195.179 247.892 195.069 243.255C194.998 240.233 192.755 236.357 189.214 237.133ZM147.442 239.181C146.909 239.305 146.38 239.518 145.907 239.782C143.862 240.923 143.473 243.32 143.523 245.437C143.616 249.386 145.799 253.366 149.462 255.09C150.699 255.673 152.082 256.098 153.446 255.723C156.196 254.966 157.137 252.134 157.077 249.571C156.993 246 155.265 242.57 152.313 240.502C150.912 239.521 149.193 238.773 147.442 239.181ZM169.151 248.447C168.515 248.587 167.862 248.625 167.223 248.783C165.834 249.126 164.524 249.721 163.292 250.409C161.132 251.614 159.623 253.446 158.248 255.448C156.792 257.566 155.693 259.81 154.825 262.208C153.77 265.121 152.711 269.134 155.653 271.353C157.648 272.857 160.005 272.523 162.248 271.843C165.577 270.833 168.744 268.888 172.349 269.153C174.619 269.32 176.776 270.274 178.88 271.065C180.599 271.71 182.277 272.275 184.126 271.845C184.682 271.715 185.271 271.531 185.757 271.225C188.932 269.226 187.903 265.226 186.502 262.431C185.545 260.522 184.337 258.712 183.034 256.994C181.077 254.416 179.026 251.968 176.259 250.216C174.615 249.175 172.923 248.611 170.991 248.469C170.386 248.424 169.76 248.314 169.151 248.447Z" fill="#E8F6FF"/>
<path d="M230.962 303.513C226.415 304.573 224.241 309.944 224.34 314.189C224.362 315.112 224.408 315.994 224.63 316.892C225.345 319.788 227.926 323.106 231.308 322.318C232.716 321.99 233.95 321.069 234.933 320.038C237.645 317.195 238.481 312.686 237.608 308.939C236.923 306 234.393 302.714 230.962 303.513ZM212.294 304.146C209.865 304.712 208.266 306.999 207.834 309.35C207.155 313.043 208.142 317.342 210.734 320.124C212.245 321.745 214.486 323.23 216.795 322.659C219.141 322.08 220.561 319.899 221.066 317.654C221.897 313.962 220.803 309.672 218.358 306.779C216.993 305.164 214.51 303.63 212.294 304.146ZM243.214 318.133C238.58 319.147 235.514 324.136 235.622 328.734C235.692 331.69 237.124 334.766 240.325 335.223C240.766 335.285 241.329 335.244 241.775 335.14C246.583 334.02 249.179 328.892 249.069 324.255C248.998 321.233 246.755 317.357 243.214 318.133ZM201.442 320.181C200.909 320.305 200.38 320.518 199.907 320.782C197.862 321.923 197.473 324.32 197.523 326.437C197.616 330.386 199.799 334.366 203.462 336.09C204.699 336.673 206.082 337.098 207.446 336.723C210.196 335.966 211.137 333.134 211.077 330.571C210.993 327 209.265 323.57 206.313 321.502C204.912 320.521 203.193 319.773 201.442 320.181ZM223.151 329.447C222.515 329.587 221.862 329.625 221.223 329.783C219.834 330.126 218.524 330.721 217.292 331.409C215.132 332.614 213.623 334.446 212.248 336.448C210.792 338.566 209.693 340.81 208.825 343.208C207.77 346.121 206.711 350.134 209.653 352.353C211.648 353.857 214.005 353.523 216.248 352.843C219.577 351.833 222.744 349.888 226.349 350.153C228.619 350.32 230.776 351.274 232.88 352.065C234.599 352.71 236.277 353.275 238.126 352.845C238.682 352.715 239.271 352.531 239.757 352.225C242.932 350.226 241.903 346.226 240.502 343.431C239.545 341.522 238.337 339.712 237.034 337.994C235.077 335.416 233.026 332.968 230.259 331.216C228.615 330.175 226.923 329.611 224.991 329.469C224.386 329.424 223.76 329.314 223.151 329.447Z" fill="#E8F6FF"/>
<path d="M304.962 272.513C300.415 273.573 298.241 278.944 298.34 283.189C298.362 284.112 298.408 284.994 298.63 285.892C299.345 288.788 301.926 292.106 305.308 291.318C306.716 290.99 307.95 290.069 308.933 289.038C311.645 286.195 312.481 281.686 311.608 277.939C310.923 275 308.393 271.714 304.962 272.513ZM286.294 273.146C283.865 273.712 282.266 275.999 281.834 278.35C281.155 282.043 282.142 286.342 284.734 289.124C286.245 290.745 288.486 292.23 290.795 291.659C293.141 291.08 294.561 288.899 295.066 286.654C295.897 282.962 294.803 278.672 292.358 275.779C290.993 274.164 288.51 272.63 286.294 273.146ZM317.214 287.133C312.58 288.147 309.514 293.136 309.622 297.734C309.692 300.69 311.124 303.766 314.325 304.223C314.766 304.285 315.329 304.244 315.775 304.14C320.583 303.02 323.179 297.892 323.069 293.255C322.998 290.233 320.755 286.357 317.214 287.133ZM275.442 289.181C274.909 289.305 274.38 289.518 273.907 289.782C271.862 290.923 271.473 293.32 271.523 295.437C271.616 299.386 273.799 303.366 277.462 305.09C278.699 305.673 280.082 306.098 281.446 305.723C284.196 304.966 285.137 302.134 285.077 299.571C284.993 296 283.265 292.57 280.313 290.502C278.912 289.521 277.193 288.773 275.442 289.181ZM297.151 298.447C296.515 298.587 295.862 298.625 295.223 298.783C293.834 299.126 292.524 299.721 291.292 300.409C289.132 301.614 287.623 303.446 286.248 305.448C284.792 307.566 283.693 309.81 282.825 312.208C281.77 315.121 280.711 319.134 283.653 321.353C285.648 322.857 288.005 322.523 290.248 321.843C293.577 320.833 296.744 318.888 300.349 319.153C302.619 319.32 304.776 320.274 306.88 321.065C308.599 321.71 310.277 322.275 312.126 321.845C312.682 321.715 313.271 321.531 313.757 321.225C316.932 319.226 315.903 315.226 314.502 312.431C313.545 310.522 312.337 308.712 311.034 306.994C309.077 304.416 307.026 301.968 304.259 300.216C302.615 299.175 300.923 298.611 298.991 298.469C298.386 298.424 297.76 298.314 297.151 298.447Z" fill="#E8F6FF"/>
<circle cx="200" cy="200" r="190" stroke="#E8F6FF" stroke-width="20"/>
</svg>
