<svg width="1282" height="195" viewBox="0 0 1282 195" fill="none" xmlns="http://www.w3.org/2000/svg">
<path fill-rule="evenodd" clip-rule="evenodd" d="M0 21.233V41.742L4.75 42.382C11.815 43.333 18.315 46.85 30 56.045C47.867 70.104 59.611 74.42 80 74.42C100.475 74.42 110.71 70.695 129.615 56.363C146.902 43.257 148.45 42.554 160 42.556C171.556 42.558 174.387 43.834 190 56.075C207.912 70.118 219.637 74.42 240 74.42C260.475 74.42 270.71 70.695 289.615 56.363C306.902 43.257 308.45 42.554 320 42.556C331.556 42.558 334.387 43.834 350 56.075C367.912 70.118 379.637 74.42 400 74.42C420.475 74.42 430.71 70.695 449.615 56.363C466.902 43.257 468.45 42.554 480 42.556C491.556 42.558 494.387 43.834 510 56.075C527.912 70.118 539.637 74.42 560 74.42C580.475 74.42 590.71 70.695 609.615 56.363C626.902 43.257 628.45 42.554 640 42.556C651.556 42.558 654.387 43.834 670 56.075C687.912 70.118 699.637 74.42 720 74.42C740.475 74.42 750.71 70.695 769.615 56.363C786.654 43.445 788.504 42.589 799.5 42.54C810.851 42.49 815.278 44.449 830 56.04C847.86 70.102 859.607 74.42 880 74.42C900.475 74.42 910.71 70.695 929.615 56.363C946.902 43.257 948.45 42.554 960 42.556C971.556 42.558 974.387 43.834 990 56.075C1007.91 70.118 1019.64 74.42 1040 74.42C1060.47 74.42 1070.71 70.695 1089.61 56.363C1106.9 43.257 1108.45 42.554 1120 42.556C1131.56 42.558 1134.39 43.834 1150 56.075C1167.91 70.118 1179.64 74.42 1200 74.42C1220.47 74.42 1230.71 70.694 1249.59 56.383C1264.03 45.434 1266.68 43.961 1274.5 42.511L1280.5 41.4L1280.77 20.885L1281.04 0.370972L1273.27 1.22096C1256.22 3.08796 1244.53 8.27497 1227.74 21.418C1214.9 31.475 1210.25 33.5 1200 33.5C1189.75 33.5 1185.1 31.475 1172.26 21.418C1160.02 11.834 1151.78 7.20497 1141 3.84897C1130.15 0.470968 1109.85 0.470968 1099 3.84897C1088.22 7.20497 1079.98 11.834 1067.74 21.418C1054.9 31.475 1050.25 33.5 1040 33.5C1029.75 33.5 1025.1 31.475 1012.26 21.418C1000.02 11.834 991.78 7.20497 981 3.84897C974.702 1.88797 971.337 1.51398 960 1.51398C948.663 1.51398 945.298 1.88797 939 3.84897C928.22 7.20497 919.985 11.834 907.742 21.418C894.896 31.475 890.246 33.5 880 33.5C869.754 33.5 865.104 31.475 852.258 21.418C840.015 11.834 831.78 7.20497 821 3.84897C814.702 1.88797 811.337 1.51398 800 1.51398C788.663 1.51398 785.298 1.88797 779 3.84897C768.22 7.20497 759.985 11.834 747.742 21.418C734.896 31.475 730.246 33.5 720 33.5C709.754 33.5 705.104 31.475 692.258 21.418C680.015 11.834 671.78 7.20497 661 3.84897C650.15 0.470968 629.85 0.470968 619 3.84897C608.22 7.20497 599.985 11.834 587.742 21.418C574.896 31.475 570.246 33.5 560 33.5C549.754 33.5 545.104 31.475 532.258 21.418C520.015 11.834 511.78 7.20497 501 3.84897C490.15 0.470968 469.85 0.470968 459 3.84897C448.22 7.20497 439.985 11.834 427.742 21.418C414.896 31.475 410.246 33.5 400 33.5C389.754 33.5 385.104 31.475 372.258 21.418C360.015 11.834 351.78 7.20497 341 3.84897C334.702 1.88797 331.337 1.51398 320 1.51398C308.663 1.51398 305.298 1.88797 299 3.84897C288.22 7.20497 279.985 11.834 267.742 21.418C254.896 31.475 250.246 33.5 240 33.5C229.754 33.5 225.104 31.475 212.258 21.418C200.015 11.834 191.78 7.20497 181 3.84897C170.15 0.470968 149.85 0.470968 139 3.84897C128.22 7.20497 119.985 11.834 107.742 21.418C94.896 31.475 90.246 33.5 80 33.5C69.754 33.5 65.104 31.475 52.258 21.418C35.501 8.29997 23.289 2.83497 7.542 1.40797L0 0.723969V21.233ZM0.423 21.5C0.424 33.05 0.57 37.638 0.747 31.696C0.924 25.753 0.923 16.303 0.745 10.696C0.567 5.08797 0.422 9.94997 0.423 21.5Z" fill="#EEF9FF"/>
</svg>
