<svg width="408" height="374" viewBox="0 0 408 374" fill="none" xmlns="http://www.w3.org/2000/svg">
<path fill-rule="evenodd" clip-rule="evenodd" d="M0.0351123 122.812L99.9791 61.4081C154.948 27.6347 201.334 0.00203013 203.059 0C204.785 -0.00202991 250.757 27.4134 305.222 60.9209C359.686 94.4304 405.091 121.326 406.124 120.687C407.233 120.003 408 129.491 408 143.888C408 157.286 407.133 168.784 406.074 169.438C405.016 170.093 391.344 162.438 375.692 152.428L347.235 134.229L346.247 140.701C345.705 144.259 344.726 162.702 344.075 181.683C342.859 217.121 341.622 247.037 340.051 279.124C339.558 289.172 338.618 311.553 337.96 328.859C337.303 346.165 336.308 363.294 335.75 366.922L334.735 373.52H308.279H281.824L283.129 341.547C283.848 323.963 284.603 283.082 284.808 250.703C285.174 193.475 285.058 191.599 280.695 183.441C274.469 171.803 264.76 162.629 252.746 157.034C243.083 152.534 240.333 152.286 199.813 152.268C157.977 152.247 156.854 152.357 146.617 157.459C134.526 163.484 125.017 173.514 118.937 186.654C114.879 195.424 114.689 198.67 115.172 250.703C115.454 280.849 116.244 320.814 116.928 339.517L118.172 373.52H94.5955C71.5263 373.52 71.0147 373.42 70.9193 368.952C70.8666 366.439 70.3793 354.793 69.8353 343.069C66.0656 261.686 62.7668 189.535 61.6685 164.428C60.9601 148.238 60.2008 134.779 59.9796 134.517C59.7603 134.257 46.5835 142.25 30.6986 152.28C14.8157 162.31 1.40335 170.518 0.89178 170.518C0.382246 170.518 -0.0176683 159.785 0.000601915 146.665L0.0351123 122.812ZM150.981 118.693C150.831 110.518 151.759 105.415 153.833 103.019C158.141 98.0418 163.785 98.596 169.294 104.542C173.866 109.475 174.769 109.617 201.541 109.617C227.292 109.617 229.17 109.353 230.371 105.561C231.953 100.579 239.736 98.3585 245.257 101.314C248.739 103.178 249.344 105.5 249.279 116.757C249.216 127.544 248.465 130.522 245.239 132.784C240.42 136.16 233.938 134.753 230.745 129.639C228.625 126.249 225.501 125.857 200.522 125.857C175.358 125.857 172.463 126.225 170.624 129.663C167.952 134.655 161.842 136.117 155.941 133.175C151.814 131.119 151.174 129.249 150.981 118.693ZM1.46831 158.845C1.07245 165.824 0.747649 160.114 0.747649 146.157C0.747649 132.201 1.07245 126.493 1.46831 133.47C1.86619 140.449 1.86619 151.868 1.46831 158.845ZM139.022 190.639C142.372 185.885 149.138 179.868 154.059 177.271C162.485 172.822 165.175 172.548 200.323 172.548C233.451 172.548 238.52 172.996 245.483 176.549C256.368 182.101 265.302 193.666 267.835 205.477C269.108 211.408 269.959 247.082 269.959 294.448V373.52H200.875H131.792L132.362 286.401L132.932 199.283L139.022 190.639ZM205.869 246.054C205.869 237.362 210.578 226.473 219.936 224.523C226.996 223.052 232.017 229.9 233.277 235.949C234.884 243.659 232.955 252.849 227.267 258.536C225.205 260.599 222.636 262.423 219.738 263.027C212.778 264.477 207.656 257.563 206.331 251.601C205.92 249.753 205.869 247.945 205.869 246.054ZM172.318 235.354C173.316 230.564 176.699 225.96 181.696 224.919C186.258 223.969 191.266 227.229 193.981 230.599C198.846 236.639 200.879 245.472 199 252.988C197.857 257.56 194.848 261.954 190.018 263.027C185.263 264.084 180.748 260.936 177.734 257.545C172.562 251.727 170.75 242.881 172.318 235.354ZM228.258 276.368C228.258 266.951 234.775 256.889 244.307 255.036C251.593 253.619 255.997 261.659 255.997 267.848C255.997 277.343 250.437 287.714 240.542 289.775C239.626 289.966 238.471 290.024 237.57 289.874C231.041 288.786 228.258 282.421 228.258 276.368ZM155.543 258.371C156.524 257.853 157.616 257.444 158.713 257.215C162.317 256.464 165.799 258.078 168.62 260.154C174.561 264.528 177.932 271.632 177.932 278.944C177.932 284.193 175.87 289.944 170.205 291.36C167.395 292.063 164.584 291.126 162.081 289.874C154.668 286.168 150.391 277.917 150.391 269.83C150.391 265.494 151.303 260.609 155.543 258.371ZM200.882 277.49C201.491 277.417 202.098 277.344 202.699 277.227C203.691 277.034 204.697 277.154 205.686 277.272C205.946 277.303 206.206 277.334 206.463 277.359C210.411 277.743 213.847 278.979 217.163 281.189C222.741 284.908 226.822 290.017 230.702 295.389C233.287 298.968 235.671 302.73 237.537 306.683C240.271 312.472 242.184 320.708 235.589 324.647C234.58 325.249 233.365 325.597 232.221 325.836C228.415 326.629 225.008 325.391 221.522 323.986C220.894 323.734 220.264 323.473 219.631 323.212C215.963 321.697 212.203 320.144 208.246 319.76C203.058 319.255 198.261 321.006 193.48 322.752C191.474 323.484 189.471 324.216 187.442 324.779C182.82 326.063 177.979 326.632 173.969 323.458C168.054 318.775 170.416 310.613 172.714 304.701C174.607 299.834 176.965 295.295 180.045 291.03C182.957 286.998 186.133 283.322 190.613 280.958C193.168 279.61 195.878 278.456 198.736 277.821C199.448 277.663 200.166 277.576 200.882 277.49Z" fill="#3BB1F9"/>
</svg>
