<svg width="200" height="152" viewBox="0 0 200 152" fill="none" xmlns="http://www.w3.org/2000/svg">
<path fill-rule="evenodd" clip-rule="evenodd" d="M113.408 117.327C112.19 112.326 113.663 107.602 117.564 104.001C119.671 102.056 123.638 100.24 126.353 99.9776C129.756 99.6492 131.277 98.9783 132.818 97.1244C134.129 95.5489 151.701 49.7835 151.738 47.8495C151.78 45.691 151.207 44.2287 149.382 41.835C146.083 37.5072 145.046 32.8608 146.293 28.0059C149.661 14.8949 165.265 13.2317 171.255 25.3455L172.371 27.6022L174.198 26.7989C183.535 22.6921 193.133 28.621 192.818 38.3012C192.571 45.8737 186.662 52.5002 179.312 53.4475C176.224 53.8455 173.953 55.2394 172.648 57.5371C172.333 58.0921 168.089 68.8786 163.216 81.5066C153.428 106.873 153.804 105.686 154.734 108.244C155.198 109.521 155.306 109.682 157.438 112.271C161.953 117.755 162.255 125.853 158.124 130.694C151.338 138.648 139.604 137.409 135.104 128.263L134.049 126.119L131.993 126.894C123.674 130.031 115.475 125.81 113.408 117.327Z" fill="#D8F0FF"/>
<path fill-rule="evenodd" clip-rule="evenodd" d="M128.019 21.1213C122.487 19.9131 121.563 19.09 118.87 12.9687L115.874 6.15906L109.283 8.74358C103.472 11.0217 102.041 10.8876 97.1952 7.5989C90.8827 3.31513 89.0568 3.80756 85.7346 10.6884L83.3448 15.637L76.1582 15.7269C72.2051 15.7765 68.6132 16.0054 68.1745 16.2362C67.7372 16.4663 67.6519 20.0892 67.9857 24.2868C68.4829 30.5382 67.9408 32.2617 64.9932 33.8126C63.0128 34.8545 60.4998 37.0266 59.407 38.6405C57.6593 41.2227 57.9978 42.4034 62.2329 48.4781C66.7312 54.9356 66.8902 55.6577 64.6825 59.6393C62.1997 64.1155 63.2469 67.3352 68.6696 67.2174C72.8064 68.5748 79.2589 68.8729 79.8193 71.6879C82.0858 83.0584 81.9542 82.9493 89.309 79.6663C95.939 76.7081 96.2695 76.7587 101.177 81.4779C103.952 84.147 106.917 85.9672 107.765 85.5209C108.612 85.0753 110.825 81.7945 112.684 78.2279L116.062 71.7467L122.951 71.9371C130.594 72.1497 131.411 71.0304 129.91 62.4097C129.203 58.3499 129.936 56.9127 134.497 53.421C137.482 51.135 140.09 48.7329 140.292 48.0824C140.494 47.4319 138.57 44.6452 136.017 41.8875C131.597 37.1183 131.463 36.5706 133.22 30.5202C134.235 27.025 134.865 23.7832 134.619 23.3154C134.374 22.849 131.403 21.862 128.019 21.1213Z" fill="#D8F0FF"/>
<circle cx="41.9942" cy="95.5196" r="37.5295" transform="rotate(-2.22098 41.9942 95.5196)" fill="#D8F0FF"/>
</svg>
