<svg width="73" height="54" viewBox="0 0 73 54" fill="none" xmlns="http://www.w3.org/2000/svg">
<path d="M63.3788 22.4401C61.3108 20.2076 60.7165 17.1918 57.406 17.1918C53.9329 17.1918 53.3053 20.2821 51.2275 22.679C49.5708 24.5933 46.0859 25.1994 46.0859 28.5579C46.0859 32.9425 51.156 35.5089 57.406 35.5089C63.6579 35.5089 68.726 32.9425 68.726 28.5579C68.725 24.8782 65.2186 24.4278 63.3788 22.4401Z" fill="white"/>
<path d="M49.0606 18.4029C49.0606 16.2008 42.1233 8.52032 42.1233 8.52032C42.1233 8.52032 41.0746 16.2008 41.0746 18.4029C41.0746 20.608 42.8635 22.3989 45.0695 22.3989C47.2717 22.3989 49.0606 20.608 49.0606 18.4029Z" fill="white"/>
<path d="M71.9553 8.51837C71.9553 8.51837 65.015 16.1979 65.015 18.401C65.015 20.6061 66.8039 22.3969 69.009 22.3969C71.2111 22.3969 73 20.607 73 18.401C73.001 16.2008 71.9553 8.51837 71.9553 8.51837Z" fill="white"/>
<path d="M52.0637 13.9802C54.2658 13.9802 56.0528 12.1893 56.0528 9.98424C56.0528 7.78114 52.0637 0.103577 52.0637 0.103577C52.0637 0.103577 48.0658 7.78212 48.0658 9.98424C48.0658 12.1893 49.8547 13.9802 52.0637 13.9802Z" fill="white"/>
<path d="M61.9981 13.9802C64.2003 13.9802 65.9862 12.1893 65.9862 9.98424C65.9862 7.78114 61.9981 0.103577 61.9981 0.103577C61.9981 0.103577 58.0042 7.78212 58.0042 9.98424C58.0042 12.1893 59.795 13.9802 61.9981 13.9802Z" fill="white"/>
<path d="M21.7736 40.9774C19.6968 38.5785 19.0682 35.4912 15.5961 35.4912C12.2876 35.4912 11.6942 38.507 9.62427 40.7405C7.78248 42.7233 4.2771 43.1747 4.2771 46.8573C4.2771 51.2419 9.34521 53.8083 15.5961 53.8083C21.8461 53.8083 26.9152 51.2419 26.9152 46.8573C26.9152 43.4968 23.4294 42.8917 21.7736 40.9774Z" fill="white"/>
<path d="M23.9384 36.7005C23.9384 38.9056 25.7273 40.6964 27.9304 40.6964C30.1364 40.6964 31.9263 38.9056 31.9263 36.7005C31.9263 34.4984 30.8767 26.8179 30.8767 26.8179C30.8767 26.8179 23.9384 34.4974 23.9384 36.7005Z" fill="white"/>
<path d="M7.98502 36.7005C7.98502 34.4984 1.04574 26.8179 1.04574 26.8179C1.04574 26.8179 0 34.4974 0 36.7005C0 38.9056 1.78892 40.6964 3.99104 40.6964C6.1961 40.6964 7.98502 38.9046 7.98502 36.7005Z" fill="white"/>
<path d="M20.9382 32.2776C23.1462 32.2776 24.9341 30.4867 24.9341 28.2817C24.9341 26.0795 20.9382 18.401 20.9382 18.401C20.9382 18.401 16.9481 26.0795 16.9481 28.2817C16.9481 30.4867 18.7361 32.2776 20.9382 32.2776Z" fill="white"/>
<path d="M11.0039 32.2776C13.2079 32.2776 14.9978 30.4867 14.9978 28.2817C14.9978 26.0795 11.0039 18.401 11.0039 18.401C11.0039 18.401 7.01282 26.0795 7.01282 28.2817C7.00988 30.4867 8.80174 32.2776 11.0039 32.2776Z" fill="white"/>
</svg>
