<svg width="80" height="60" viewBox="0 0 80 60" fill="none" xmlns="http://www.w3.org/2000/svg">
<g clip-path="url(#clip0_810_45)">
<path d="M40 22.495C35.8588 22.495 32.5 25.8537 32.5 29.995C32.5 34.1362 35.8588 37.495 40 37.495C44.1412 37.495 47.5 34.1362 47.5 29.995C47.5 25.8537 44.1412 22.495 40 22.495ZM43.75 31.24C43.0588 31.24 42.5 30.6812 42.5 29.99C42.5 28.61 41.38 27.49 40 27.49C39.3088 27.49 38.75 26.9312 38.75 26.24C38.75 25.5487 39.3088 24.99 40 24.99C42.7613 24.99 45 27.2287 45 29.99C45 30.6812 44.4412 31.24 43.75 31.24Z" fill="white"/>
<path d="M40 12.495C30.335 12.495 22.5 20.33 22.5 29.995C22.5 39.66 30.335 47.495 40 47.495C49.665 47.495 57.5 39.66 57.5 29.995C57.5 20.33 49.665 12.495 40 12.495ZM40 39.995C34.4775 39.995 30 35.5175 30 29.995C30 24.4725 34.4775 19.995 40 19.995C45.5225 19.995 50 24.4725 50 29.995C50 35.5175 45.5225 39.995 40 39.995Z" fill="white"/>
<path d="M79.9175 29.5412C79.8987 29.495 79.5975 28.7337 78.9925 27.4812C75.7462 20.7687 63.775 -0.0100098 40 -0.0100098C11.79 -0.0100098 0.197461 29.245 0.0824609 29.5412C-0.0287891 29.83 -0.0287891 30.15 0.0824609 30.44C0.197461 30.735 11.79 59.99 40 59.99C63.7625 59.99 75.7337 39.2337 78.9862 32.5112C79.5937 31.2525 79.8975 30.4862 79.9162 30.44C80.0275 30.15 80.0275 29.83 79.9175 29.5412ZM40 49.995C28.9537 49.995 20 41.0412 20 29.995C20 18.9487 28.9537 9.99499 40 9.99499C51.0462 9.99499 60 18.9487 60 29.995C60 41.0412 51.0462 49.995 40 49.995Z" fill="white"/>
</g>
<defs>
<clipPath id="clip0_810_45">
<rect width="80" height="60" fill="white"/>
</clipPath>
</defs>
</svg>
