<svg width="90" height="90" viewBox="0 0 90 90" fill="none" xmlns="http://www.w3.org/2000/svg">
<path d="M45 16.1111C45 22.2476 40.0253 27.2222 33.8889 27.2222C27.7524 27.2222 22.7778 22.2476 22.7778 16.1111M45 16.1111C45 9.97462 40.0253 5 33.8889 5C27.7524 5 22.7778 9.97462 22.7778 16.1111M45 16.1111H85M22.7778 16.1111H5M76.1111 45C76.1111 51.1364 71.1364 56.1111 65 56.1111C58.8636 56.1111 53.8889 51.1364 53.8889 45M76.1111 45C76.1111 38.8636 71.1364 33.8889 65 33.8889C58.8636 33.8889 53.8889 38.8636 53.8889 45M76.1111 45H85M53.8889 45H5M36.1111 73.8889C36.1111 80.0253 31.1365 85 25 85C18.8635 85 13.8889 80.0253 13.8889 73.8889M36.1111 73.8889C36.1111 67.7524 31.1365 62.7778 25 62.7778C18.8635 62.7778 13.8889 67.7524 13.8889 73.8889M36.1111 73.8889H85M13.8889 73.8889H5" stroke="white" stroke-width="8.88889" stroke-linecap="round" stroke-linejoin="round"/>
</svg>
