<svg width="666" height="660" viewBox="0 0 666 660" fill="none" xmlns="http://www.w3.org/2000/svg">
<g clip-path="url(#clip0_774_38)">
<path d="M333 -6.33337C423.567 -6.33337 434.867 -6.00004 470.4 -4.33338C505.9 -2.66671 530.067 2.89996 551.333 11.1666C573.333 19.6333 591.867 31.1 610.4 49.6C627.35 66.2632 640.465 86.4196 648.833 108.667C657.067 129.9 662.667 154.1 664.333 189.6C665.9 225.133 666.333 236.433 666.333 327C666.333 417.567 666 428.867 664.333 464.4C662.667 499.9 657.067 524.067 648.833 545.333C640.489 567.592 627.371 587.754 610.4 604.4C593.732 621.344 573.577 634.458 551.333 642.833C530.1 651.067 505.9 656.667 470.4 658.333C434.867 659.9 423.567 660.333 333 660.333C242.433 660.333 231.133 660 195.6 658.333C160.1 656.667 135.933 651.067 114.667 642.833C92.4109 634.482 72.2509 621.365 55.6 604.4C38.6469 587.739 25.5311 567.582 17.1667 545.333C8.90002 524.1 3.33335 499.9 1.66669 464.4C0.100018 428.867 -0.333313 417.567 -0.333313 327C-0.333313 236.433 1.84002e-05 225.133 1.66669 189.6C3.33335 154.067 8.90002 129.933 17.1667 108.667C25.5079 86.4059 38.6268 66.244 55.6 49.6C72.2557 32.641 92.4143 19.5243 114.667 11.1666C135.933 2.89996 160.067 -2.66671 195.6 -4.33338C231.133 -5.90004 242.433 -6.33337 333 -6.33337ZM333 160.333C288.797 160.333 246.405 177.893 215.149 209.149C183.893 240.405 166.333 282.797 166.333 327C166.333 371.203 183.893 413.595 215.149 444.851C246.405 476.107 288.797 493.667 333 493.667C377.203 493.667 419.595 476.107 450.851 444.851C482.107 413.595 499.667 371.203 499.667 327C499.667 282.797 482.107 240.405 450.851 209.149C419.595 177.893 377.203 160.333 333 160.333ZM549.667 152C549.667 140.949 545.277 130.351 537.463 122.537C529.649 114.723 519.051 110.333 508 110.333C496.949 110.333 486.351 114.723 478.537 122.537C470.723 130.351 466.333 140.949 466.333 152C466.333 163.051 470.723 173.649 478.537 181.463C486.351 189.277 496.949 193.667 508 193.667C519.051 193.667 529.649 189.277 537.463 181.463C545.277 173.649 549.667 163.051 549.667 152ZM333 227C359.522 227 384.957 237.536 403.711 256.289C422.464 275.043 433 300.478 433 327C433 353.522 422.464 378.957 403.711 397.711C384.957 416.464 359.522 427 333 427C306.478 427 281.043 416.464 262.289 397.711C243.536 378.957 233 353.522 233 327C233 300.478 243.536 275.043 262.289 256.289C281.043 237.536 306.478 227 333 227Z" fill="black"/>
</g>
<defs>
<clipPath id="clip0_774_38">
<rect width="666" height="660" fill="white"/>
</clipPath>
</defs>
</svg>
