<svg width="139" height="200" viewBox="0 0 139 200" fill="none" xmlns="http://www.w3.org/2000/svg">
<g clip-path="url(#clip0_826_148)">
<path fill-rule="evenodd" clip-rule="evenodd" d="M33.909 2.86301C22.778 6.49101 13.492 15.121 7.47602 27.43C2.33802 37.943 1.10702 43.835 1.40302 56.5C1.61502 65.578 2.11602 68.673 4.27302 74.217C12.938 96.492 36.343 108.771 60.486 103.709C64.328 102.903 67.99 102.443 68.623 102.686C69.899 103.175 82.4 131.359 84.638 138.79C85.879 142.912 85.844 146.05 84.356 163.915C82.479 186.465 83.045 193.29 87.156 197.667C93.853 204.795 104.126 197.047 125.605 168.668C135.879 155.093 139.185 148.332 138.8 141.68C138.515 136.761 138.304 136.404 134.611 134.601C131.702 133.181 127.717 132.579 118.799 132.211C109.841 131.842 106.4 131.32 104.962 130.11C103.909 129.225 99.248 120.544 94.603 110.82L86.159 93.14L89.066 88.556C94.12 80.588 95.793 76.617 98.178 66.931C101.314 54.194 101.278 39.989 98.09 31.762C93.089 18.863 83.652 9.71701 69.933 4.47401C60.259 0.778009 42.715 -0.00699091 33.909 2.86301ZM104 147.464C104 148.147 100.6 165.644 99.427 171C99.112 172.438 102.666 168.401 107.791 161.5C113.597 153.681 116.3 149.26 115.548 148.811C113.818 147.777 104 146.632 104 147.464Z" fill="#C5E9FF"/>
<path fill-rule="evenodd" clip-rule="evenodd" d="M51.5 7.03699C45.739 16.977 28.891 30.32 15.268 35.731C10.741 37.529 6.181 39 5.135 39C4.008 39 2.988 39.917 2.63 41.25C1.319 46.145 1.563 46.33 8.488 45.683C28.413 43.823 51.687 28.463 62.37 10.125C64.412 6.61899 65.887 3.55399 65.647 3.31399C65.407 3.07399 62.801 2.64799 59.855 2.36899L54.5 1.85999L51.5 7.03699ZM73.228 20.094C70.348 21.181 69.537 23.266 70.958 25.922C73.161 30.038 79 27.627 79 22.601C79 20.414 75.922 19.077 73.228 20.094ZM86.03 22.182C83.611 26.15 83.512 28.365 85.5 34C87.584 39.907 87.42 41 84.45 41C80.587 41 76.221 43.673 74.431 47.133C73.549 48.838 72.577 53.554 72.27 57.614C71.575 66.808 70.643 67.748 64.346 65.602C58.708 63.681 52.144 63.575 49.785 65.366C48.843 66.082 47.167 68.778 46.062 71.356C44.957 73.933 43.384 76.299 42.566 76.613C41.748 76.927 37.692 75.314 33.553 73.029C22.412 66.879 15.795 67.46 11.354 74.977C10.372 76.64 8.991 78 8.284 78C7.578 78 7 78.635 7 79.41C7 81.4 14.232 90.312 18.469 93.545C21.839 96.115 22.401 96.219 29.262 95.55C38.792 94.619 50.111 90.805 62.94 84.201C78.386 76.25 88.237 69.592 94.397 62.938C100.576 56.264 101.112 54.113 99.737 41.5C98.865 33.501 92.717 19.725 89.777 19.182C88.697 18.983 87.298 20.103 86.03 22.182ZM56.2 39.2C54.328 41.072 54.788 45.498 57.068 47.562C58.957 49.271 59.37 49.303 61.818 47.933C63.293 47.108 64.649 45.399 64.83 44.134C65.479 39.622 59.307 36.093 56.2 39.2ZM32.245 51.25C30.067 53.972 29.956 56.65 31.946 58.451C34.639 60.888 38.759 59.809 39.603 56.444C40.72 51.995 34.923 47.903 32.245 51.25ZM8.567 57.926C6.517 60.191 6.797 62.843 9.25 64.388C13.089 66.805 16.774 60.916 13.482 57.625C11.394 55.536 10.691 55.579 8.567 57.926ZM92.477 76.024C87.936 80.764 75.73 88.788 66.433 93.144C58.646 96.793 41.79 101.857 36.622 102.1C34.721 102.189 34.761 102.283 37 103C40.832 104.227 55.982 104.137 62.397 102.849C67.113 101.902 68.371 101.946 69.503 103.099C70.26 103.87 74.342 112.559 78.574 122.409L86.268 140.319L85.62 151.409C83.354 190.187 83.551 193.641 88.282 198.048C91.16 200.729 93.838 200.499 99.054 197.122C104.562 193.557 110.538 187.299 120.177 175C137.267 153.193 141.759 143.384 137.463 137.251C135.397 134.301 129.913 132.977 119.318 132.871C104.084 132.718 105.083 133.555 94.866 112.387C89.99 102.284 86 93.534 86 92.942C86 92.351 87.107 90.415 88.46 88.641C91.171 85.087 96.454 74.121 95.78 73.446C95.546 73.212 94.06 74.372 92.477 76.024ZM104.284 147.227C103.107 148.729 98.498 171.831 99.23 172.563C99.73 173.063 115.751 151.813 116.66 149.444C116.975 148.623 115.668 147.97 112.819 147.526C110.443 147.157 107.776 146.652 106.891 146.404C106.006 146.157 104.833 146.528 104.284 147.227Z" fill="#DCF2FF"/>
</g>
<defs>
<clipPath id="clip0_826_148">
<rect width="139" height="200" fill="white"/>
</clipPath>
</defs>
</svg>
