<svg width="80" height="80" viewBox="0 0 80 80" fill="none" xmlns="http://www.w3.org/2000/svg">
<g clip-path="url(#clip0_900_39)">
<path fill-rule="evenodd" clip-rule="evenodd" d="M57.499 37.5H31.034L41.3391 27.2C42.3141 26.225 42.3141 24.6499 41.3391 23.6499C40.3616 22.6749 38.779 22.6749 37.8015 23.6499L23.659 37.8C23.0615 38.4 22.874 39.225 23.0115 40C22.874 40.775 23.0615 41.6 23.659 42.2L37.8015 56.3501C38.779 57.3251 40.3616 57.3251 41.3391 56.3501C42.3141 55.3751 42.3141 53.775 41.3391 52.8L31.034 42.5H57.499C58.879 42.5 59.999 41.375 59.999 40C59.999 38.625 58.879 37.5 57.499 37.5ZM39.999 75C20.669 75 4.99902 59.325 4.99902 40C4.99902 20.675 20.669 5 39.999 5C59.329 5 74.999 20.675 74.999 40C74.999 59.325 59.329 75 39.999 75ZM39.999 0C17.909 0 -0.000976562 17.9 -0.000976562 40C-0.000976562 62.1 17.909 80 39.999 80C62.089 80 79.999 62.1 79.999 40C79.999 17.9 62.089 0 39.999 0Z" fill="#9E1F2B"/>
</g>
<defs>
<clipPath id="clip0_900_39">
<path d="M0 34.56C0 32.1829 0 30.9944 0.0631447 29.9907C1.07548 13.9001 13.9001 1.07548 29.9907 0.0631447C30.9944 0 32.1829 0 34.56 0H45.44C47.8171 0 49.0056 0 50.0093 0.0631447C66.0999 1.07548 78.9245 13.9001 79.9369 29.9907C80 30.9944 80 32.1829 80 34.56V45.44C80 47.8171 80 49.0056 79.9369 50.0093C78.9245 66.0999 66.0999 78.9245 50.0093 79.9369C49.0056 80 47.8171 80 45.44 80H34.56C32.1829 80 30.9944 80 29.9907 79.9369C13.9001 78.9245 1.07548 66.0999 0.0631447 50.0093C0 49.0056 0 47.8171 0 45.44V34.56Z" fill="white"/>
</clipPath>
</defs>
</svg>
