<svg width="848" height="853" viewBox="0 0 848 853" fill="none" xmlns="http://www.w3.org/2000/svg">
<path d="M517.253 146.028C515.444 153.133 521.361 160.046 527.35 162.974C528.653 163.612 529.916 164.185 531.328 164.525C535.882 165.62 542.372 164.42 543.718 159.135C544.278 156.936 543.886 154.55 543.16 152.434C541.157 146.599 535.474 142.174 529.62 140.684C525.028 139.515 518.618 140.667 517.253 146.028ZM504.644 172.511C503.678 176.305 505.71 180.187 508.675 182.489C513.333 186.105 520.039 187.836 525.79 186.233C529.142 185.298 532.832 183.247 533.706 179.615C534.593 175.925 532.579 172.371 529.814 170.043C525.268 166.216 518.497 164.642 512.696 165.96C509.459 166.695 505.526 169.047 504.644 172.511ZM546.488 139.514C544.554 146.706 549.292 154.587 555.781 157.759C559.952 159.798 565.275 160.025 568.225 155.892C568.632 155.322 568.98 154.507 569.158 153.811C571.071 146.299 565.798 138.974 559.255 135.775C554.99 133.69 547.966 134.017 546.488 139.514ZM519.155 199.228C518.943 200.06 518.857 200.951 518.883 201.802C518.997 205.477 522.056 207.751 525.044 209.212C530.617 211.936 537.742 211.769 542.794 207.909C544.499 206.606 546.092 204.985 546.555 202.812C547.487 198.431 544.219 195.073 540.602 193.305C535.564 190.842 529.533 190.771 524.518 193.392C522.137 194.636 519.852 196.492 519.155 199.228ZM547.762 175.66C547.497 176.647 547.079 177.585 546.837 178.591C546.312 180.775 546.193 183.03 546.262 185.246C546.382 189.129 547.845 192.555 549.642 195.92C551.543 199.479 553.877 202.633 556.593 205.577C559.892 209.152 564.72 213.53 569.94 211.031C573.478 209.338 574.717 205.81 575.389 202.192C576.388 196.821 575.964 191 578.939 186.166C580.812 183.122 583.702 180.804 586.324 178.443C588.466 176.513 590.467 174.582 591.202 171.693C591.423 170.825 591.593 169.87 591.518 168.972C591.025 163.1 584.706 161.644 579.796 161.577C576.443 161.532 573.048 161.908 569.711 162.483C564.702 163.347 559.807 164.438 555.365 167.029C552.726 168.569 550.716 170.52 549.121 173.111C548.622 173.922 548.017 174.714 547.762 175.66Z" fill="#D8F0FF"/>
<path d="M595.87 203.259C594.061 210.365 599.978 217.278 605.967 220.206C607.271 220.843 608.534 221.417 609.946 221.756C614.5 222.852 620.99 221.652 622.335 216.367C622.896 214.168 622.504 211.782 621.777 209.666C619.774 203.831 614.092 199.406 608.238 197.916C603.645 196.746 597.235 197.899 595.87 203.259ZM583.261 229.743C582.295 233.537 584.327 237.419 587.292 239.72C591.951 243.337 598.657 245.068 604.408 243.464C607.76 242.53 611.45 240.479 612.323 236.846C613.211 233.157 611.197 229.603 608.432 227.275C603.886 223.448 597.114 221.874 591.313 223.191C588.077 223.927 584.143 226.279 583.261 229.743ZM625.106 196.746C623.172 203.938 627.91 211.819 634.398 214.991C638.569 217.03 643.893 217.257 646.842 213.124C647.249 212.554 647.598 211.739 647.775 211.043C649.688 203.53 644.415 196.206 637.872 193.007C633.608 190.922 626.584 191.248 625.106 196.746ZM597.772 256.46C597.56 257.292 597.475 258.183 597.501 259.033C597.614 262.709 600.674 264.983 603.661 266.443C609.234 269.168 616.36 269 621.411 265.141C623.117 263.838 624.709 262.216 625.172 260.044C626.105 255.663 622.836 252.305 619.219 250.537C614.181 248.073 608.15 248.003 603.135 250.623C600.754 251.868 598.469 253.724 597.772 256.46ZM626.38 232.892C626.114 233.879 625.696 234.817 625.454 235.823C624.929 238.007 624.811 240.262 624.879 242.477C624.999 246.36 626.462 249.787 628.26 253.152C630.161 256.711 632.494 259.865 635.21 262.809C638.509 266.384 643.338 270.761 648.558 268.263C652.096 266.569 653.334 263.041 654.007 259.424C655.005 254.052 654.582 248.232 657.556 243.398C659.43 240.354 662.319 238.036 664.941 235.674C667.083 233.745 669.084 231.814 669.82 228.925C670.041 228.056 670.21 227.101 670.135 226.204C669.643 220.332 663.324 218.876 658.413 218.809C655.061 218.764 651.665 219.139 648.328 219.715C643.319 220.579 638.424 221.67 633.983 224.261C631.343 225.8 629.333 227.752 627.739 230.343C627.24 231.154 626.634 231.946 626.38 232.892Z" fill="#D8F0FF"/>
<path d="M650.172 283.929C648.363 291.034 654.28 297.947 660.269 300.875C661.573 301.513 662.836 302.086 664.248 302.426C668.802 303.521 675.292 302.321 676.637 297.036C677.198 294.837 676.806 292.451 676.079 290.335C674.076 284.5 668.394 280.075 662.54 278.585C657.947 277.415 651.537 278.568 650.172 283.929ZM637.563 310.412C636.597 314.206 638.629 318.088 641.594 320.389C646.253 324.006 652.959 325.737 658.71 324.133C662.062 323.199 665.752 321.148 666.625 317.515C667.513 313.826 665.499 310.272 662.734 307.944C658.188 304.117 651.416 302.543 645.615 303.861C642.379 304.596 638.445 306.948 637.563 310.412ZM679.408 277.415C677.474 284.607 682.212 292.488 688.7 295.66C692.871 297.699 698.195 297.926 701.144 293.793C701.551 293.223 701.9 292.408 702.077 291.712C703.99 284.199 698.717 276.875 692.174 273.676C687.91 271.591 680.886 271.917 679.408 277.415ZM652.074 337.129C651.862 337.961 651.777 338.852 651.803 339.703C651.916 343.378 654.976 345.652 657.963 347.112C663.536 349.837 670.662 349.67 675.713 345.81C677.419 344.507 679.011 342.885 679.474 340.713C680.407 336.332 677.138 332.974 673.521 331.206C668.483 328.742 662.452 328.672 657.437 331.292C655.056 332.537 652.771 334.393 652.074 337.129ZM680.682 313.561C680.416 314.548 679.998 315.486 679.756 316.492C679.231 318.676 679.113 320.931 679.181 323.146C679.301 327.029 680.764 330.456 682.562 333.821C684.463 337.38 686.796 340.534 689.512 343.478C692.811 347.053 697.64 351.431 702.86 348.932C706.398 347.239 707.636 343.711 708.309 340.093C709.307 334.721 708.884 328.901 711.858 324.067C713.732 321.023 716.621 318.705 719.243 316.344C721.385 314.414 723.386 312.483 724.122 309.594C724.343 308.725 724.512 307.771 724.437 306.873C723.945 301.001 717.626 299.545 712.715 299.478C709.363 299.433 705.967 299.808 702.63 300.384C697.621 301.248 692.726 302.339 688.285 304.93C685.645 306.469 683.635 308.421 682.041 311.012C681.542 311.823 680.936 312.615 680.682 313.561Z" fill="#D8F0FF"/>
<path d="M673.609 378.305C671.8 385.41 677.716 392.323 683.706 395.252C685.009 395.889 686.272 396.462 687.684 396.802C692.238 397.897 698.728 396.698 700.074 391.413C700.634 389.213 700.242 386.828 699.516 384.712C697.513 378.877 691.83 374.452 685.976 372.961C681.384 371.792 674.974 372.945 673.609 378.305ZM661 404.788C660.034 408.582 662.066 412.464 665.031 414.766C669.689 418.382 676.395 420.113 682.146 418.51C685.498 417.575 689.188 415.524 690.062 411.892C690.949 408.202 688.935 404.648 686.17 402.321C681.624 398.494 674.853 396.919 669.052 398.237C665.815 398.972 661.882 401.325 661 404.788ZM702.844 371.791C700.91 378.984 705.648 386.864 712.137 390.036C716.308 392.076 721.631 392.302 724.581 388.17C724.988 387.6 725.336 386.784 725.514 386.088C727.426 378.576 722.154 371.251 715.611 368.052C711.346 365.967 704.322 366.294 702.844 371.791ZM675.511 431.505C675.299 432.338 675.213 433.229 675.239 434.079C675.353 437.754 678.412 440.028 681.4 441.489C686.973 444.214 694.098 444.046 699.15 440.186C700.855 438.884 702.448 437.262 702.911 435.089C703.843 430.709 700.575 427.35 696.958 425.582C691.92 423.119 685.889 423.048 680.873 425.669C678.492 426.913 676.208 428.769 675.511 431.505ZM704.118 407.938C703.853 408.925 703.435 409.863 703.193 410.868C702.668 413.052 702.549 415.308 702.618 417.523C702.738 421.406 704.201 424.833 705.998 428.197C707.899 431.757 710.233 434.911 712.949 437.854C716.248 441.43 721.076 445.807 726.296 443.309C729.834 441.615 731.073 438.087 731.745 434.47C732.744 429.098 732.32 423.278 735.295 418.443C737.168 415.399 740.058 413.081 742.68 410.72C744.822 408.79 746.823 406.86 747.558 403.971C747.779 403.102 747.949 402.147 747.874 401.249C747.381 395.378 741.062 393.921 736.152 393.855C732.799 393.809 729.404 394.185 726.067 394.76C721.058 395.624 716.163 396.715 711.721 399.306C709.082 400.846 707.072 402.797 705.477 405.388C704.978 406.199 704.373 406.992 704.118 407.938Z" fill="#D8F0FF"/>
<path d="M663.354 475.006C661.544 482.111 667.461 489.024 673.45 491.952C674.754 492.59 676.017 493.163 677.429 493.503C681.983 494.598 688.473 493.398 689.819 488.113C690.379 485.914 689.987 483.528 689.26 481.412C687.257 475.577 681.575 471.153 675.721 469.662C671.128 468.493 664.718 469.645 663.354 475.006ZM650.744 501.489C649.778 505.283 651.811 509.165 654.775 511.467C659.434 515.083 666.14 516.814 671.891 515.211C675.243 514.276 678.933 512.225 679.806 508.593C680.694 504.903 678.68 501.349 675.915 499.021C671.369 495.195 664.597 493.62 658.796 494.938C655.56 495.673 651.626 498.025 650.744 501.489ZM692.589 468.492C690.655 475.684 695.393 483.565 701.882 486.737C706.052 488.776 711.376 489.003 714.325 484.87C714.732 484.3 715.081 483.485 715.258 482.789C717.171 475.277 711.898 467.952 705.356 464.753C701.091 462.668 694.067 462.995 692.589 468.492ZM665.256 528.206C665.044 529.039 664.958 529.929 664.984 530.78C665.098 534.455 668.157 536.729 671.144 538.19C676.717 540.914 683.843 540.747 688.895 536.887C690.6 535.584 692.193 533.963 692.655 531.79C693.588 527.409 690.32 524.051 686.703 522.283C681.664 519.82 675.633 519.749 670.618 522.37C668.237 523.614 665.952 525.47 665.256 528.206ZM693.863 504.638C693.597 505.625 693.179 506.563 692.937 507.569C692.412 509.753 692.294 512.008 692.362 514.224C692.482 518.107 693.946 521.533 695.743 524.898C697.644 528.457 699.977 531.611 702.693 534.555C705.992 538.13 710.821 542.508 716.041 540.009C719.579 538.316 720.817 534.788 721.49 531.17C722.488 525.799 722.065 519.978 725.04 515.144C726.913 512.1 729.802 509.782 732.424 507.421C734.567 505.491 736.567 503.56 737.303 500.671C737.524 499.803 737.694 498.848 737.618 497.95C737.126 492.078 730.807 490.622 725.896 490.555C722.544 490.51 719.149 490.886 715.811 491.461C710.802 492.325 705.908 493.416 701.466 496.007C698.826 497.547 696.816 499.498 695.222 502.089C694.723 502.9 694.117 503.692 693.863 504.638Z" fill="#D8F0FF"/>
<path d="M620.643 562.367C618.834 569.472 624.751 576.385 630.74 579.314C632.044 579.951 633.306 580.524 634.719 580.864C639.272 581.959 645.763 580.76 647.108 575.475C647.668 573.275 647.276 570.89 646.55 568.774C644.547 562.939 638.864 558.514 633.011 557.023C628.418 555.854 622.008 557.007 620.643 562.367ZM608.034 588.85C607.068 592.644 609.1 596.526 612.065 598.828C616.723 602.444 623.429 604.175 629.18 602.572C632.532 601.637 636.222 599.586 637.096 595.954C637.983 592.264 635.97 588.71 633.205 586.383C628.658 582.556 621.887 580.981 616.086 582.299C612.85 583.034 608.916 585.387 608.034 588.85ZM649.878 555.853C647.944 563.046 652.682 570.926 659.171 574.098C663.342 576.138 668.665 576.364 671.615 572.232C672.022 571.662 672.371 570.846 672.548 570.15C674.461 562.638 669.188 555.313 662.645 552.115C658.38 550.029 651.356 550.356 649.878 555.853ZM622.545 615.567C622.333 616.4 622.247 617.291 622.274 618.141C622.387 621.816 625.446 624.09 628.434 625.551C634.007 628.276 641.133 628.108 646.184 624.248C647.889 622.946 649.482 621.324 649.945 619.151C650.877 614.771 647.609 611.412 643.992 609.644C638.954 607.181 632.923 607.11 627.908 609.731C625.527 610.975 623.242 612.831 622.545 615.567ZM651.152 592C650.887 592.987 650.469 593.925 650.227 594.93C649.702 597.114 649.584 599.37 649.652 601.585C649.772 605.468 651.235 608.895 653.032 612.259C654.933 615.819 657.267 618.973 659.983 621.916C663.282 625.492 668.111 629.869 673.33 627.371C676.868 625.677 678.107 622.149 678.779 618.532C679.778 613.16 679.354 607.34 682.329 602.505C684.202 599.461 687.092 597.143 689.714 594.782C691.856 592.853 693.857 590.922 694.592 588.033C694.814 587.164 694.983 586.209 694.908 585.311C694.416 579.44 688.096 577.983 683.186 577.917C679.834 577.871 676.438 578.247 673.101 578.822C668.092 579.686 663.197 580.777 658.755 583.368C656.116 584.908 654.106 586.859 652.512 589.45C652.012 590.261 651.407 591.054 651.152 592Z" fill="#D8F0FF"/>
<path d="M550.629 629.852C548.82 636.957 554.736 643.871 560.726 646.799C562.029 647.436 563.292 648.009 564.704 648.349C569.258 649.444 575.748 648.245 577.094 642.96C577.654 640.76 577.262 638.375 576.536 636.259C574.533 630.424 568.85 625.999 562.996 624.508C558.404 623.339 551.994 624.492 550.629 629.852ZM538.02 656.335C537.054 660.129 539.086 664.011 542.051 666.313C546.709 669.929 553.415 671.66 559.166 670.057C562.518 669.122 566.208 667.071 567.082 663.439C567.969 659.749 565.955 656.195 563.19 653.868C558.644 650.041 551.873 648.466 546.072 649.784C542.835 650.519 538.902 652.872 538.02 656.335ZM579.864 623.338C577.93 630.531 582.668 638.411 589.157 641.583C593.328 643.623 598.651 643.849 601.601 639.717C602.008 639.147 602.356 638.331 602.534 637.635C604.446 630.123 599.174 622.798 592.631 619.6C588.366 617.515 581.342 617.841 579.864 623.338ZM552.531 683.052C552.319 683.885 552.233 684.776 552.259 685.626C552.373 689.301 555.432 691.575 558.42 693.036C563.993 695.761 571.118 695.593 576.17 691.733C577.875 690.431 579.468 688.809 579.931 686.636C580.863 682.256 577.595 678.897 573.978 677.129C568.94 674.666 562.909 674.595 557.894 677.216C555.512 678.46 553.228 680.316 552.531 683.052ZM581.138 659.485C580.873 660.472 580.455 661.41 580.213 662.415C579.688 664.599 579.569 666.855 579.638 669.07C579.758 672.953 581.221 676.38 583.018 679.744C584.919 683.304 587.253 686.458 589.969 689.401C593.268 692.977 598.096 697.354 603.316 694.856C606.854 693.162 608.093 689.634 608.765 686.017C609.764 680.645 609.34 674.825 612.315 669.99C614.188 666.946 617.078 664.628 619.7 662.267C621.842 660.338 623.843 658.407 624.578 655.518C624.799 654.649 624.969 653.694 624.894 652.796C624.401 646.925 618.082 645.468 613.172 645.402C609.819 645.356 606.424 645.732 603.087 646.307C598.078 647.171 593.183 648.262 588.741 650.853C586.102 652.393 584.092 654.344 582.497 656.935C581.998 657.746 581.393 658.539 581.138 659.485Z" fill="#D8F0FF"/>
<path d="M461.756 669.321C459.947 676.426 465.863 683.339 471.853 686.268C473.156 686.905 474.419 687.478 475.831 687.818C480.385 688.913 486.875 687.713 488.221 682.429C488.781 680.229 488.389 677.844 487.663 675.728C485.66 669.893 479.977 665.468 474.123 663.977C469.531 662.808 463.121 663.961 461.756 669.321ZM449.147 695.804C448.181 699.598 450.213 703.48 453.178 705.782C457.836 709.398 464.542 711.129 470.293 709.526C473.645 708.591 477.335 706.54 478.209 702.908C479.096 699.218 477.082 695.664 474.317 693.337C469.771 689.51 463 687.935 457.199 689.253C453.962 689.988 450.029 692.341 449.147 695.804ZM490.991 662.807C489.057 670 493.795 677.88 500.284 681.052C504.455 683.091 509.778 683.318 512.728 679.186C513.135 678.615 513.483 677.8 513.661 677.104C515.573 669.592 510.301 662.267 503.758 659.068C499.493 656.983 492.469 657.31 490.991 662.807ZM463.658 722.521C463.446 723.354 463.36 724.245 463.386 725.095C463.5 728.77 466.559 731.044 469.547 732.505C475.12 735.229 482.245 735.062 487.297 731.202C489.002 729.899 490.595 728.278 491.057 726.105C491.99 721.725 488.722 718.366 485.105 716.598C480.067 714.135 474.036 714.064 469.02 716.685C466.639 717.929 464.355 719.785 463.658 722.521ZM492.265 698.954C492 699.941 491.582 700.879 491.34 701.884C490.814 704.068 490.696 706.324 490.765 708.539C490.885 712.422 492.348 715.849 494.145 719.213C496.046 722.773 498.38 725.926 501.096 728.87C504.395 732.446 509.223 736.823 514.443 734.324C517.981 732.631 519.22 729.103 519.892 725.486C520.891 720.114 520.467 714.293 523.442 709.459C525.315 706.415 528.205 704.097 530.827 701.736C532.969 699.806 534.969 697.876 535.705 694.986C535.926 694.118 536.096 693.163 536.021 692.265C535.528 686.394 529.209 684.937 524.299 684.871C520.946 684.825 517.551 685.201 514.214 685.776C509.205 686.64 504.31 687.731 499.868 690.322C497.229 691.862 495.219 693.813 493.624 696.404C493.125 697.215 492.519 698.008 492.265 698.954Z" fill="#D8F0FF"/>
<path d="M364.744 676.013C362.935 683.118 368.851 690.032 374.841 692.96C376.144 693.597 377.407 694.17 378.819 694.51C383.373 695.606 389.863 694.406 391.209 689.121C391.769 686.921 391.377 684.536 390.651 682.42C388.647 676.585 382.965 672.16 377.111 670.669C372.518 669.5 366.109 670.653 364.744 676.013ZM352.135 702.496C351.168 706.291 353.201 710.172 356.166 712.474C360.824 716.09 367.53 717.822 373.281 716.218C376.633 715.283 380.323 713.232 381.197 709.6C382.084 705.911 380.07 702.356 377.305 700.029C372.759 696.202 365.987 694.627 360.187 695.945C356.95 696.68 353.016 699.033 352.135 702.496ZM393.979 669.499C392.045 676.692 396.783 684.572 403.272 687.745C407.443 689.784 412.766 690.011 415.715 685.878C416.122 685.308 416.471 684.493 416.648 683.796C418.561 676.284 413.288 668.959 406.746 665.761C402.481 663.676 395.457 664.002 393.979 669.499ZM366.646 729.213C366.434 730.046 366.348 730.937 366.374 731.787C366.488 735.463 369.547 737.736 372.535 739.197C378.108 741.922 385.233 741.754 390.285 737.895C391.99 736.592 393.583 734.97 394.045 732.798C394.978 728.417 391.71 725.059 388.093 723.29C383.055 720.827 377.023 720.756 372.008 723.377C369.627 724.621 367.342 726.477 366.646 729.213ZM395.253 705.646C394.988 706.633 394.569 707.571 394.328 708.577C393.802 710.76 393.684 713.016 393.753 715.231C393.873 719.114 395.336 722.541 397.133 725.906C399.034 729.465 401.367 732.619 404.084 735.563C407.382 739.138 412.211 743.515 417.431 741.017C420.969 739.323 422.207 735.795 422.88 732.178C423.878 726.806 423.455 720.986 426.43 716.152C428.303 713.107 431.192 710.79 433.814 708.428C435.957 706.499 437.957 704.568 438.693 701.679C438.914 700.81 439.084 699.855 439.008 698.957C438.516 693.086 432.197 691.629 427.286 691.563C423.934 691.518 420.539 691.893 417.202 692.469C412.192 693.332 407.298 694.423 402.856 697.014C400.216 698.554 398.206 700.505 396.612 703.096C396.113 703.907 395.507 704.7 395.253 705.646Z" fill="#D8F0FF"/>
<path d="M271.293 649.122C269.484 656.227 275.4 663.14 281.39 666.068C282.693 666.706 283.956 667.279 285.368 667.619C289.922 668.714 296.412 667.514 297.758 662.229C298.318 660.03 297.926 657.644 297.2 655.529C295.197 649.693 289.514 645.269 283.66 643.778C279.068 642.609 272.658 643.761 271.293 649.122ZM258.684 675.605C257.717 679.399 259.75 683.281 262.715 685.583C267.373 689.199 274.079 690.93 279.83 689.327C283.182 688.392 286.872 686.341 287.746 682.709C288.633 679.019 286.619 675.465 283.854 673.137C279.308 669.311 272.536 667.736 266.736 669.054C263.499 669.789 259.566 672.141 258.684 675.605ZM300.528 642.608C298.594 649.8 303.332 657.681 309.821 660.853C313.992 662.892 319.315 663.119 322.265 658.986C322.671 658.416 323.02 657.601 323.197 656.905C325.11 649.393 319.837 642.068 313.295 638.869C309.03 636.784 302.006 637.111 300.528 642.608ZM273.195 702.322C272.983 703.155 272.897 704.045 272.923 704.896C273.037 708.571 276.096 710.845 279.084 712.306C284.657 715.03 291.782 714.863 296.834 711.003C298.539 709.7 300.132 708.079 300.594 705.906C301.527 701.525 298.259 698.167 294.642 696.399C289.604 693.936 283.572 693.865 278.557 696.486C276.176 697.73 273.891 699.586 273.195 702.322ZM301.802 678.754C301.537 679.741 301.119 680.679 300.877 681.685C300.351 683.869 300.233 686.124 300.302 688.34C300.422 692.223 301.885 695.649 303.682 699.014C305.583 702.573 307.916 705.727 310.633 708.671C313.931 712.246 318.76 716.624 323.98 714.125C327.518 712.432 328.757 708.904 329.429 705.286C330.427 699.915 330.004 694.094 332.979 689.26C334.852 686.216 337.742 683.898 340.363 681.537C342.506 679.607 344.506 677.676 345.242 674.787C345.463 673.919 345.633 672.964 345.558 672.066C345.065 666.195 338.746 664.738 333.835 664.671C330.483 664.626 327.088 665.002 323.751 665.577C318.741 666.441 313.847 667.532 309.405 670.123C306.765 671.663 304.756 673.614 303.161 676.205C302.662 677.016 302.056 677.808 301.802 678.754Z" fill="#D8F0FF"/>
<path d="M192.675 591.89C190.866 598.995 196.783 605.908 202.772 608.836C204.076 609.474 205.339 610.047 206.751 610.387C211.305 611.482 217.795 610.282 219.14 604.998C219.7 602.798 219.309 600.413 218.582 598.297C216.579 592.462 210.897 588.037 205.043 586.546C200.45 585.377 194.04 586.53 192.675 591.89ZM180.066 618.373C179.1 622.167 181.132 626.049 184.097 628.351C188.756 631.967 195.462 633.698 201.213 632.095C204.565 631.16 208.255 629.109 209.128 625.477C210.016 621.787 208.002 618.233 205.237 615.906C200.691 612.079 193.919 610.504 188.118 611.822C184.882 612.557 180.948 614.909 180.066 618.373ZM221.91 585.376C219.976 592.569 224.715 600.449 231.203 603.621C235.374 605.66 240.697 605.887 243.647 601.754C244.054 601.184 244.403 600.369 244.58 599.673C246.493 592.161 241.22 584.836 234.677 581.637C230.413 579.552 223.389 579.879 221.91 585.376ZM194.577 645.09C194.365 645.923 194.28 646.814 194.306 647.664C194.419 651.339 197.479 653.613 200.466 655.074C206.039 657.798 213.165 657.631 218.216 653.771C219.922 652.468 221.514 650.847 221.977 648.674C222.909 644.294 219.641 640.935 216.024 639.167C210.986 636.704 204.955 636.633 199.94 639.254C197.559 640.498 195.274 642.354 194.577 645.09ZM223.185 621.523C222.919 622.51 222.501 623.447 222.259 624.453C221.734 626.637 221.616 628.893 221.684 631.108C221.804 634.991 223.267 638.418 225.064 641.782C226.966 645.341 229.299 648.495 232.015 651.439C235.314 655.015 240.143 659.392 245.363 656.893C248.9 655.2 250.139 651.672 250.812 648.054C251.81 642.683 251.387 636.862 254.361 632.028C256.235 628.984 259.124 626.666 261.746 624.305C263.888 622.375 265.889 620.445 266.625 617.555C266.846 616.687 267.015 615.732 266.94 614.834C266.448 608.963 260.129 607.506 255.218 607.44C251.866 607.394 248.47 607.77 245.133 608.345C240.124 609.209 235.229 610.3 230.788 612.891C228.148 614.431 226.138 616.382 224.544 618.973C224.045 619.784 223.439 620.577 223.185 621.523Z" fill="#D8F0FF"/>
<path d="M138.373 511.221C136.564 518.326 142.481 525.239 148.47 528.167C149.774 528.805 151.037 529.378 152.449 529.718C157.003 530.813 163.493 529.613 164.838 524.329C165.398 522.129 165.007 519.744 164.28 517.628C162.277 511.793 156.595 507.368 150.741 505.877C146.148 504.708 139.738 505.861 138.373 511.221ZM125.764 537.704C124.798 541.498 126.83 545.38 129.795 547.682C134.454 551.298 141.16 553.029 146.911 551.426C150.263 550.491 153.953 548.44 154.826 544.808C155.714 541.118 153.7 537.564 150.935 535.237C146.389 531.41 139.617 529.835 133.816 531.153C130.58 531.888 126.646 534.24 125.764 537.704ZM167.608 504.707C165.674 511.9 170.413 519.78 176.901 522.952C181.072 524.991 186.395 525.218 189.345 521.085C189.752 520.515 190.101 519.7 190.278 519.004C192.191 511.492 186.918 504.167 180.375 500.968C176.111 498.883 169.087 499.21 167.608 504.707ZM140.275 564.421C140.063 565.254 139.978 566.145 140.004 566.995C140.117 570.67 143.177 572.944 146.164 574.405C151.737 577.129 158.863 576.962 163.914 573.102C165.62 571.799 167.212 570.178 167.675 568.005C168.607 563.625 165.339 560.266 161.722 558.498C156.684 556.035 150.653 555.964 145.638 558.585C143.257 559.829 140.972 561.685 140.275 564.421ZM168.883 540.854C168.617 541.841 168.199 542.778 167.957 543.784C167.432 545.968 167.314 548.224 167.382 550.439C167.502 554.322 168.965 557.749 170.762 561.113C172.664 564.672 174.997 567.826 177.713 570.77C181.012 574.346 185.841 578.723 191.061 576.224C194.598 574.531 195.837 571.003 196.51 567.385C197.508 562.014 197.085 556.193 200.059 551.359C201.933 548.315 204.822 545.997 207.444 543.636C209.586 541.706 211.587 539.776 212.323 536.886C212.544 536.018 212.713 535.063 212.638 534.165C212.146 528.294 205.827 526.837 200.916 526.771C197.564 526.725 194.168 527.101 190.831 527.676C185.822 528.54 180.927 529.631 176.486 532.222C173.846 533.762 171.836 535.713 170.242 538.304C169.743 539.115 169.137 539.908 168.883 540.854Z" fill="#D8F0FF"/>
<path d="M114.937 416.844C113.128 423.95 119.044 430.863 125.034 433.791C126.337 434.428 127.6 435.002 129.012 435.341C133.566 436.437 140.056 435.237 141.402 429.952C141.962 427.752 141.57 425.367 140.844 423.251C138.841 417.416 133.158 412.991 127.304 411.501C122.712 410.331 116.302 411.484 114.937 416.844ZM102.328 443.328C101.362 447.122 103.394 451.004 106.359 453.305C111.017 456.922 117.723 458.653 123.474 457.049C126.826 456.115 130.516 454.063 131.39 450.431C132.277 446.742 130.263 443.188 127.498 440.86C122.952 437.033 116.181 435.458 110.38 436.776C107.143 437.512 103.21 439.864 102.328 443.328ZM144.172 410.331C142.238 417.523 146.976 425.404 153.465 428.576C157.636 430.615 162.959 430.842 165.909 426.709C166.315 426.139 166.664 425.324 166.842 424.628C168.754 417.115 163.481 409.791 156.939 406.592C152.674 404.507 145.65 404.833 144.172 410.331ZM116.839 470.045C116.627 470.877 116.541 471.768 116.567 472.618C116.681 476.294 119.74 478.568 122.728 480.028C128.301 482.753 135.426 482.585 140.478 478.726C142.183 477.423 143.776 475.801 144.238 473.629C145.171 469.248 141.903 465.89 138.286 464.121C133.248 461.658 127.217 461.588 122.201 464.208C119.82 465.452 117.536 467.308 116.839 470.045ZM145.446 446.477C145.181 447.464 144.763 448.402 144.521 449.408C143.995 451.592 143.877 453.847 143.946 456.062C144.066 459.945 145.529 463.372 147.326 466.737C149.227 470.296 151.561 473.45 154.277 476.394C157.575 479.969 162.404 484.346 167.624 481.848C171.162 480.154 172.401 476.626 173.073 473.009C174.071 467.637 173.648 461.817 176.623 456.983C178.496 453.938 181.386 451.621 184.007 449.259C186.15 447.33 188.15 445.399 188.886 442.51C189.107 441.641 189.277 440.686 189.202 439.788C188.709 433.917 182.39 432.461 177.479 432.394C174.127 432.349 170.732 432.724 167.395 433.3C162.386 434.163 157.491 435.255 153.049 437.846C150.409 439.385 148.4 441.337 146.805 443.928C146.306 444.739 145.7 445.531 145.446 446.477Z" fill="#D8F0FF"/>
<path d="M125.192 320.144C123.383 327.249 129.3 334.162 135.289 337.09C136.593 337.728 137.855 338.301 139.268 338.641C143.822 339.736 150.312 338.536 151.657 333.251C152.217 331.052 151.825 328.666 151.099 326.55C149.096 320.715 143.413 316.29 137.56 314.8C132.967 313.63 126.557 314.783 125.192 320.144ZM112.583 346.627C111.617 350.421 113.649 354.303 116.614 356.605C121.272 360.221 127.978 361.952 133.73 360.348C137.081 359.414 140.771 357.363 141.645 353.73C142.533 350.041 140.519 346.487 137.754 344.159C133.207 340.332 126.436 338.758 120.635 340.076C117.399 340.811 113.465 343.163 112.583 346.627ZM154.427 313.63C152.493 320.822 157.231 328.703 163.72 331.875C167.891 333.914 173.214 334.141 176.164 330.008C176.571 329.438 176.92 328.623 177.097 327.927C179.01 320.415 173.737 313.09 167.194 309.891C162.929 307.806 155.906 308.132 154.427 313.63ZM127.094 373.344C126.882 374.176 126.796 375.067 126.823 375.918C126.936 379.593 129.995 381.867 132.983 383.328C138.556 386.052 145.682 385.885 150.733 382.025C152.438 380.722 154.031 379.101 154.494 376.928C155.426 372.547 152.158 369.189 148.541 367.421C143.503 364.958 137.472 364.887 132.457 367.508C130.076 368.752 127.791 370.608 127.094 373.344ZM155.701 349.776C155.436 350.763 155.018 351.701 154.776 352.707C154.251 354.891 154.133 357.146 154.201 359.362C154.321 363.245 155.784 366.671 157.581 370.036C159.483 373.595 161.816 376.749 164.532 379.693C167.831 383.268 172.66 387.646 177.879 385.147C181.417 383.454 182.656 379.926 183.328 376.308C184.327 370.936 183.903 365.116 186.878 360.282C188.751 357.238 191.641 354.92 194.263 352.559C196.405 350.629 198.406 348.698 199.141 345.809C199.363 344.941 199.532 343.986 199.457 343.088C198.965 337.216 192.645 335.76 187.735 335.693C184.383 335.648 180.987 336.024 177.65 336.599C172.641 337.463 167.746 338.554 163.304 341.145C160.665 342.685 158.655 344.636 157.061 347.227C156.562 348.038 155.956 348.83 155.701 349.776Z" fill="#D8F0FF"/>
<path d="M167.903 232.782C166.093 239.888 172.01 246.801 178 249.729C179.303 250.366 180.566 250.94 181.978 251.279C186.532 252.375 193.022 251.175 194.368 245.89C194.928 243.69 194.536 241.305 193.809 239.189C191.806 233.354 186.124 228.929 180.27 227.439C175.677 226.269 169.268 227.422 167.903 232.782ZM155.293 259.266C154.327 263.06 156.36 266.942 159.324 269.243C163.983 272.86 170.689 274.591 176.44 272.987C179.792 272.053 183.482 270.001 184.356 266.369C185.243 262.68 183.229 259.126 180.464 256.798C175.918 252.971 169.146 251.396 163.346 252.714C160.109 253.45 156.175 255.802 155.293 259.266ZM197.138 226.269C195.204 233.461 199.942 241.341 206.431 244.514C210.601 246.553 215.925 246.78 218.874 242.647C219.281 242.077 219.63 241.262 219.807 240.566C221.72 233.053 216.447 225.729 209.905 222.53C205.64 220.445 198.616 220.771 197.138 226.269ZM169.805 285.983C169.593 286.815 169.507 287.706 169.533 288.556C169.647 292.232 172.706 294.506 175.694 295.966C181.266 298.691 188.392 298.523 193.444 294.664C195.149 293.361 196.742 291.739 197.204 289.567C198.137 285.186 194.869 281.828 191.252 280.059C186.213 277.596 180.182 277.526 175.167 280.146C172.786 281.39 170.501 283.246 169.805 285.983ZM198.412 262.415C198.146 263.402 197.728 264.34 197.486 265.346C196.961 267.53 196.843 269.785 196.912 272C197.032 275.883 198.495 279.31 200.292 282.675C202.193 286.234 204.526 289.388 207.242 292.332C210.541 295.907 215.37 300.284 220.59 297.786C224.128 296.092 225.366 292.564 226.039 288.947C227.037 283.575 226.614 277.755 229.589 272.921C231.462 269.876 234.351 267.559 236.973 265.197C239.116 263.268 241.116 261.337 241.852 258.448C242.073 257.579 242.243 256.624 242.167 255.726C241.675 249.855 235.356 248.399 230.445 248.332C227.093 248.287 223.698 248.662 220.36 249.238C215.351 250.101 210.457 251.193 206.015 253.783C203.375 255.323 201.365 257.275 199.771 259.866C199.272 260.677 198.666 261.469 198.412 262.415Z" fill="#D8F0FF"/>
<path d="M237.917 165.297C236.108 172.403 242.024 179.316 248.014 182.244C249.317 182.881 250.58 183.455 251.992 183.794C256.546 184.89 263.036 183.69 264.382 178.405C264.942 176.205 264.55 173.82 263.824 171.704C261.821 165.869 256.138 161.444 250.284 159.954C245.692 158.784 239.282 159.937 237.917 165.297ZM225.308 191.781C224.342 195.575 226.374 199.457 229.339 201.758C233.997 205.374 240.703 207.106 246.454 205.502C249.806 204.568 253.496 202.516 254.37 198.884C255.257 195.195 253.243 191.641 250.478 189.313C245.932 185.486 239.16 183.911 233.36 185.229C230.123 185.965 226.19 188.317 225.308 191.781ZM267.152 158.784C265.218 165.976 269.956 173.856 276.445 177.029C280.616 179.068 285.939 179.295 288.889 175.162C289.295 174.592 289.644 173.777 289.821 173.081C291.734 165.568 286.461 158.243 279.919 155.045C275.654 152.96 268.63 153.286 267.152 158.784ZM239.819 218.498C239.607 219.33 239.521 220.221 239.547 221.071C239.661 224.747 242.72 227.021 245.708 228.481C251.281 231.206 258.406 231.038 263.458 227.179C265.163 225.876 266.756 224.254 267.218 222.082C268.151 217.701 264.883 214.343 261.266 212.574C256.228 210.111 250.196 210.041 245.181 212.661C242.8 213.905 240.516 215.761 239.819 218.498ZM268.426 194.93C268.161 195.917 267.743 196.855 267.501 197.861C266.975 200.044 266.857 202.3 266.926 204.515C267.046 208.398 268.509 211.825 270.306 215.19C272.207 218.749 274.541 221.903 277.257 224.847C280.555 228.422 285.384 232.799 290.604 230.301C294.142 228.607 295.381 225.079 296.053 221.462C297.051 216.09 296.628 210.27 299.603 205.436C301.476 202.391 304.366 200.074 306.987 197.712C309.13 195.783 311.13 193.852 311.866 190.963C312.087 190.094 312.257 189.139 312.182 188.241C311.689 182.37 305.37 180.914 300.459 180.847C297.107 180.802 293.712 181.177 290.375 181.753C285.366 182.616 280.471 183.707 276.029 186.298C273.389 187.838 271.38 189.79 269.785 192.38C269.286 193.191 268.68 193.984 268.426 194.93Z" fill="#D8F0FF"/>
<path d="M326.79 125.828C324.981 132.934 330.897 139.847 336.887 142.775C338.19 143.412 339.453 143.986 340.865 144.325C345.419 145.421 351.909 144.221 353.255 138.936C353.815 136.736 353.423 134.351 352.697 132.235C350.694 126.4 345.011 121.975 339.157 120.485C334.565 119.315 328.155 120.468 326.79 125.828ZM314.181 152.312C313.215 156.106 315.247 159.988 318.212 162.289C322.87 165.906 329.576 167.637 335.327 166.033C338.679 165.099 342.369 163.047 343.243 159.415C344.13 155.726 342.116 152.172 339.351 149.844C334.805 146.017 328.034 144.443 322.233 145.76C318.996 146.496 315.063 148.848 314.181 152.312ZM356.025 119.315C354.091 126.507 358.829 134.388 365.318 137.56C369.489 139.599 374.812 139.826 377.762 135.693C378.168 135.123 378.517 134.308 378.695 133.612C380.607 126.099 375.334 118.775 368.792 115.576C364.527 113.491 357.503 113.817 356.025 119.315ZM328.692 179.029C328.48 179.861 328.394 180.752 328.42 181.602C328.534 185.278 331.593 187.552 334.581 189.012C340.154 191.737 347.279 191.569 352.331 187.71C354.036 186.407 355.629 184.785 356.091 182.613C357.024 178.232 353.756 174.874 350.139 173.105C345.101 170.642 339.07 170.572 334.054 173.192C331.673 174.437 329.389 176.293 328.692 179.029ZM357.299 155.461C357.034 156.448 356.616 157.386 356.374 158.392C355.848 160.576 355.73 162.831 355.799 165.046C355.919 168.929 357.382 172.356 359.179 175.721C361.08 179.28 363.414 182.434 366.13 185.378C369.428 188.953 374.257 193.33 379.477 190.832C383.015 189.138 384.254 185.61 384.926 181.993C385.924 176.621 385.501 170.801 388.476 165.967C390.349 162.923 393.239 160.605 395.86 158.243C398.003 156.314 400.003 154.383 400.739 151.494C400.96 150.625 401.13 149.67 401.055 148.772C400.562 142.901 394.243 141.445 389.333 141.378C385.98 141.333 382.585 141.708 379.248 142.284C374.239 143.148 369.344 144.239 364.902 146.83C362.262 148.369 360.253 150.321 358.658 152.912C358.159 153.723 357.553 154.515 357.299 155.461Z" fill="#D8F0FF"/>
<path d="M423.802 119.136C421.993 126.241 427.91 133.155 433.899 136.083C435.203 136.72 436.466 137.294 437.878 137.633C442.432 138.729 448.922 137.529 450.267 132.244C450.827 130.044 450.435 127.659 449.709 125.543C447.706 119.708 442.024 115.283 436.17 113.792C431.577 112.623 425.167 113.776 423.802 119.136ZM411.193 145.619C410.227 149.414 412.259 153.295 415.224 155.597C419.883 159.213 426.588 160.945 432.34 159.341C435.692 158.406 439.382 156.355 440.255 152.723C441.143 149.034 439.129 145.479 436.364 143.152C431.818 139.325 425.046 137.75 419.245 139.068C416.009 139.803 412.075 142.156 411.193 145.619ZM453.037 112.622C451.103 119.815 455.842 127.695 462.33 130.868C466.501 132.907 471.824 133.134 474.774 129.001C475.181 128.431 475.53 127.616 475.707 126.92C477.62 119.407 472.347 112.082 465.804 108.884C461.54 106.799 454.516 107.125 453.037 112.622ZM425.704 172.336C425.492 173.169 425.406 174.06 425.433 174.91C425.546 178.586 428.606 180.86 431.593 182.32C437.166 185.045 444.292 184.877 449.343 181.018C451.049 179.715 452.641 178.093 453.104 175.921C454.036 171.54 450.768 168.182 447.151 166.413C442.113 163.95 436.082 163.879 431.067 166.5C428.686 167.744 426.401 169.6 425.704 172.336ZM454.311 148.769C454.046 149.756 453.628 150.694 453.386 151.7C452.861 153.883 452.743 156.139 452.811 158.354C452.931 162.237 454.394 165.664 456.191 169.029C458.093 172.588 460.426 175.742 463.142 178.686C466.441 182.261 471.27 186.638 476.489 184.14C480.027 182.446 481.266 178.918 481.938 175.301C482.937 169.929 482.513 164.109 485.488 159.275C487.362 156.23 490.251 153.913 492.873 151.551C495.015 149.622 497.016 147.691 497.752 144.802C497.973 143.933 498.142 142.978 498.067 142.08C497.575 136.209 491.256 134.752 486.345 134.686C482.993 134.641 479.597 135.016 476.26 135.592C471.251 136.455 466.356 137.546 461.915 140.137C459.275 141.677 457.265 143.628 455.671 146.219C455.172 147.03 454.566 147.823 454.311 148.769Z" fill="#D8F0FF"/>
<circle cx="423.978" cy="425.835" r="190" transform="rotate(-63.9462 423.978 425.835)" stroke="#D8F0FF" stroke-width="20"/>
</svg>
