<svg width="60" height="58" viewBox="0 0 60 58" fill="none" xmlns="http://www.w3.org/2000/svg">
<path d="M39.5122 0.114687C34.1952 1.22239 31.5197 7.40895 31.5197 12.3473C31.5197 13.4222 31.549 14.4491 31.7824 15.4993C32.535 18.8862 35.445 22.8147 39.3996 21.9909C41.0457 21.6479 42.5055 20.6111 43.6773 19.4393C46.9087 16.2079 48.0045 10.9868 47.0919 6.60625C46.3759 3.16952 43.5234 -0.720975 39.5122 0.114687ZM17.7861 0.339828C14.9469 0.931331 13.0248 3.54665 12.4578 6.26854C11.5668 10.5451 12.5965 15.5709 15.5347 18.8764C17.2472 20.803 19.8127 22.5912 22.5141 21.9909C25.258 21.3811 26.968 18.8845 27.6173 16.2873C28.6849 12.0169 27.5297 6.99831 24.7655 3.56685C23.2232 1.65227 20.378 -0.200145 17.7861 0.339828ZM53.3583 17.4505C47.9428 18.5036 44.2401 24.2205 44.2401 29.5706C44.2401 33.0096 45.8211 36.6258 49.5309 37.2441C50.0427 37.3294 50.6986 37.2964 51.2195 37.1879C56.8411 36.0167 60 30.1247 60 24.7301C60 21.2137 57.4976 16.6457 53.3583 17.4505ZM4.72795 18.6888C4.1049 18.8186 3.48413 19.0513 2.92683 19.3455C0.517918 20.6168 0 23.3924 0 25.8558C0 30.4508 2.42976 35.1382 6.64165 37.2441C8.06354 37.9551 9.66083 38.4875 11.257 38.0884C14.4757 37.2838 15.6473 34.0163 15.6473 31.034C15.6473 26.8799 13.7321 22.8434 10.3565 20.3586C8.75385 19.1789 6.77541 18.2622 4.72795 18.6888ZM29.7186 30.0584C28.9754 30.2029 28.2152 30.2299 27.4672 30.3961C25.8431 30.757 24.3037 31.4122 22.8518 32.1785C20.3068 33.5217 18.5024 35.6102 16.848 37.9008C15.098 40.324 13.7583 42.9029 12.6829 45.6682C11.3769 49.0266 10.035 53.6641 13.3959 56.3248C15.6739 58.1283 18.4247 57.8047 21.0507 57.0753C24.9502 55.9921 28.6857 53.8167 32.8705 54.2235C35.5059 54.4797 37.9883 55.6485 40.4128 56.625C42.3938 57.4229 44.3295 58.1261 46.4916 57.6757C47.1415 57.5403 47.8322 57.3425 48.4053 57.0002C52.1522 54.7625 51.0656 50.0833 49.5122 46.7939C48.4518 44.5483 47.0972 42.4109 45.6285 40.3774C43.424 37.325 41.1055 34.4227 37.9362 32.3098C36.0527 31.0542 34.1003 30.3515 31.8574 30.1335C31.1553 30.0652 30.4309 29.9199 29.7186 30.0584Z" fill="white" fill-opacity="0.95"/>
</svg>
