<svg width="62" height="63" viewBox="0 0 62 63" fill="none" xmlns="http://www.w3.org/2000/svg">
<g clip-path="url(#clip0_944_37)">
<path d="M58.8761 25.2367H39.2746C37.5592 25.2367 36.7017 25.2367 36.0465 24.9029C35.4701 24.6093 35.0018 24.1407 34.7081 23.5644C34.3743 22.9093 34.3743 22.0516 34.3743 20.3364V9.92311M25.1861 9.92311H49.0754C52.5059 9.92311 54.2213 9.92311 55.5316 10.5908C56.6841 11.178 57.6213 12.1151 58.2084 13.2677C58.8761 14.578 58.8761 16.2932 58.8761 19.7238V49.126C58.8761 52.5565 58.8761 54.2719 58.2084 55.5822C57.6213 56.7347 56.6841 57.6719 55.5316 58.259C54.2213 58.9267 52.5059 58.9267 49.0754 58.9267H13.5478C10.1172 58.9267 8.40192 58.9267 7.09162 58.259C5.93903 57.6719 5.00196 56.7347 4.41471 55.5822C3.74707 54.2719 3.74707 52.5565 3.74707 49.126V19.7238C3.74707 16.2932 3.74707 14.578 4.41471 13.2677C5.00196 12.1151 5.93903 11.178 7.09162 10.5908C8.32152 9.96409 9.9082 9.92562 12.9352 9.92327M25.1861 9.92311V8.69802C25.1861 6.98275 25.1861 6.12509 24.8523 5.46995C24.5587 4.89366 24.0901 4.42513 23.5138 4.13147C22.8587 3.79767 22.001 3.79767 20.2858 3.79767H17.8356C16.1203 3.79767 15.2627 3.79767 14.6075 4.13147C14.0312 4.42513 13.5627 4.89366 13.269 5.46995C12.9352 6.12509 12.9352 6.98275 12.9352 8.69802V9.92327M25.1861 9.92311V41.7754C25.1861 43.4909 25.1861 44.3484 24.8523 45.0035C24.5587 45.5799 24.0901 46.0482 23.5138 46.3419C22.8587 46.6758 22.001 46.6758 20.2858 46.6758H17.8356C16.1203 46.6758 15.2627 46.6758 14.6075 46.3419C14.0312 46.0482 13.5627 45.5799 13.269 45.0035C12.9352 44.3484 12.9352 43.4909 12.9352 41.7754V9.92327M37.437 37.4876H37.4676V37.457H37.437V37.4876ZM37.437 46.6758H37.4676V46.7064H37.437V46.6758ZM46.6252 46.6758H46.6558V46.7064H46.6252V46.6758ZM46.6252 37.4876H46.6558V37.5182H46.6252V37.4876Z" stroke="white" stroke-width="6.12544" stroke-linecap="round" stroke-linejoin="round"/>
</g>
<defs>
<clipPath id="clip0_944_37">
<rect width="61.377" height="61.6526" fill="white" transform="translate(0.623047 0.673706)"/>
</clipPath>
</defs>
</svg>
