<svg width="64" height="61" viewBox="0 0 64 61" fill="none" xmlns="http://www.w3.org/2000/svg">
<g clip-path="url(#clip0_944_41)">
<path d="M0.854783 29.8919C0.355903 30.1002 0.0227853 30.5792 0.00134527 31.1197C-0.0200947 31.6602 0.27301 32.1642 0.75365 32.4122L16.5607 40.5703L19.9869 59.3716C20.0868 59.9178 20.5015 60.3527 21.0429 60.4778C21.5844 60.6029 22.1479 60.394 22.4769 59.9466L31.1786 48.1143L52.1463 58.9357C52.5386 59.1383 53.0036 59.1424 53.3994 58.9476C53.7953 58.7524 54.0753 58.3808 54.154 57.9466L64.0001 3.48645L0.854783 29.8919ZM23.3745 44.0868L16.5604 40.57L52.6823 14.5178L23.3745 44.0868Z" fill="white"/>
</g>
<defs>
<clipPath id="clip0_944_41">
<rect width="64" height="60.5714" fill="white"/>
</clipPath>
</defs>
</svg>
