<svg width="486" height="160" viewBox="0 0 486 160" fill="none" xmlns="http://www.w3.org/2000/svg">
<path d="M54.6407 37.5376C47.5888 37.8763 39.929 38.6668 37.619 39.3444C35.3089 40.1348 33.2419 41.49 32.9988 42.3933C32.7558 43.8614 35.0657 44.0873 48.1967 44.0873C58.5719 44.1627 67.2043 44.8778 74.094 46.2328C79.8085 47.3621 89.4135 49.7336 95.3711 51.4275C101.45 53.1214 111.785 56.5092 118.472 58.7676C125.159 61.1391 138.898 66.6724 148.868 71.1895C158.959 75.7065 176.103 84.5148 187.167 90.6127C198.231 96.8237 215.496 106.874 225.465 112.972C235.557 119.07 247.958 126.523 253.186 129.459C258.293 132.508 267.898 137.477 274.463 140.526C280.907 143.575 290.877 147.527 296.592 149.447C302.306 151.254 311.911 153.851 317.869 155.093C323.948 156.335 335.377 158.029 343.401 158.82C351.791 159.61 363.949 159.836 371.973 159.497C379.633 159.046 389.238 158.255 393.251 157.578C397.263 156.9 402.369 155.884 404.558 155.206C406.746 154.642 408.205 153.512 408.084 152.722C407.719 151.819 406.138 151.593 403.464 151.931C401.153 152.27 388.995 152.496 376.229 152.383C357.383 152.383 350.818 151.931 340.97 149.899C334.283 148.657 323.583 145.947 317.261 144.027C310.939 141.994 300.482 138.042 294.16 135.105C287.838 132.169 278.719 127.427 274.099 124.716C269.357 122.006 256.834 114.214 246.135 107.326C235.435 100.55 219.021 90.5 209.66 84.9666C200.298 79.5461 183.397 70.7379 171.969 65.5433C158.351 59.2194 144.491 53.912 131.238 49.8467C120.174 46.4589 105.463 42.6194 98.4107 41.2643C91.3588 39.9091 81.5106 38.4411 76.5257 37.8765C71.5408 37.3119 61.6925 37.1988 54.6407 37.5376Z" fill="#D8F0FF"/>
<path d="M75.309 0.159203C66.3119 0.384892 54.032 1.4014 47.9528 2.41775C41.9952 3.43406 32.147 5.69259 26.0678 7.38648C20.1102 9.19331 12.2072 12.3551 8.55971 14.3878C4.9122 16.4205 1.38634 19.0178 0.656855 20.0341C-0.0726766 21.0504 -0.194297 22.4056 0.292091 22.8573C0.778581 23.3091 2.72386 22.8573 4.54762 21.7281C6.37137 20.5988 10.262 18.6791 13.3016 17.4369C16.3412 16.0818 22.9067 14.162 27.8916 12.9198C32.8765 11.6776 41.9952 10.2096 47.9528 9.53206C54.2752 8.74158 66.5551 8.51571 77.1328 8.85448C87.2243 9.19324 101.693 10.5484 109.352 11.7906C117.012 13.0328 129.778 15.8559 137.681 18.0015C145.463 20.26 157.499 24.3254 164.43 27.1486C171.238 29.9717 181.816 34.8275 187.774 37.9894C193.853 41.1513 203.944 47.0234 210.267 50.9758C216.589 54.9282 235.556 67.9146 252.213 79.7718C268.992 91.629 289.174 105.406 297.199 110.375C305.223 115.231 318.111 122.232 325.771 125.959C333.431 129.572 344.373 133.976 350.088 135.896C355.802 137.703 365.042 140.187 370.757 141.316C377.687 142.671 386.319 143.236 396.897 143.236C409.056 143.236 415.256 142.672 423.646 140.752C429.725 139.397 438.965 136.348 444.315 133.863C449.664 131.492 456.838 127.314 460.242 124.603C463.647 121.893 468.267 117.602 470.577 115.005C472.887 112.294 476.413 106.987 478.601 103.147C480.668 99.1951 483.343 91.9678 484.437 86.9991C485.896 80.5623 486.261 75.7066 485.653 70.0603C485.167 65.7692 483.951 59.5581 482.978 56.5092C482.006 53.3472 479.209 47.2493 476.778 42.9581C474.224 38.4411 469.239 32.1172 464.984 28.1648C460.121 23.6478 454.649 20.0342 448.57 17.2111C443.342 14.8396 436.047 12.581 431.549 11.9034C426.28 11.1506 421.011 11.1506 415.743 11.9034C411.244 12.581 403.949 14.8396 398.721 17.2111C392.52 20.0342 386.806 23.9865 380.727 29.407C375.863 33.6982 371.851 37.9893 371.973 38.6668C371.973 39.4573 372.702 40.135 373.553 40.135C374.283 40.0219 378.295 37.086 382.307 33.5853C386.441 30.0846 392.399 25.7933 395.682 24.0994C399.086 22.4056 405.287 20.26 409.664 19.1307C415.256 17.7756 419.877 17.4369 425.469 18.0015C430.576 18.4534 436.169 19.9213 441.275 22.1798C446.503 24.4383 451.731 28.0519 456.473 32.5689C460.485 36.4084 465.227 42.3935 467.051 45.7813C468.875 49.1691 471.185 55.0412 472.279 58.7677C473.252 62.4942 474.103 68.5922 474.103 72.3187C474.103 76.0453 473.495 81.3528 472.765 84.1759C472.036 86.9991 469.726 92.5326 467.659 96.4849C465.227 100.889 460.972 106.197 456.473 110.149C451.731 114.44 446.017 118.167 440.059 120.651C435.074 122.909 427.172 125.507 422.43 126.636C416.837 127.878 409.056 128.556 399.329 128.556C390.089 128.556 381.213 127.765 375.012 126.523C369.663 125.507 361.516 123.361 356.775 121.78C352.155 120.199 343.036 116.586 336.713 113.65C330.391 110.714 319.692 105.067 313.005 101.228C306.318 97.3884 289.053 86.0957 274.706 76.1582C260.359 66.2208 244.188 55.154 238.839 51.5404C233.489 48.0397 223.155 41.603 215.738 37.3118C208.443 33.0206 195.312 26.358 186.558 22.5185C177.925 18.679 164.916 13.7104 157.743 11.4518C150.448 9.19333 137.681 6.0313 129.171 4.45035C120.538 2.8694 108.745 1.17562 102.665 0.610971C96.7078 0.0463256 84.3062 -0.179424 75.309 0.159203Z" fill="#D8F0FF"/>
</svg>
