<svg width="210" height="78" viewBox="0 0 210 78" fill="none" xmlns="http://www.w3.org/2000/svg">
<g clip-path="url(#clip0_754_38)">
<path fill-rule="evenodd" clip-rule="evenodd" d="M158.141 21.1896C154.349 23.8512 150.052 28.5286 150.462 29.5488C150.797 30.3828 153.143 33.5372 153.66 33.8491C153.763 33.9115 153.903 34.0562 153.971 34.1708C154.193 34.5446 156.66 36.7571 157.003 36.8897C157.203 36.9673 158.079 37.5532 158.134 37.647C158.168 37.7039 159.463 38.4072 159.594 38.4398C159.635 38.4501 160 38.597 160.405 38.7665C165.208 40.7751 170.293 39.6431 173.487 35.8543C173.935 35.3231 175.306 33.0004 175.375 32.6575C175.403 32.5149 175.464 32.3775 175.51 32.352C175.591 32.3068 175.756 31.977 176.542 30.2882C176.752 29.8363 177.038 29.2977 177.176 29.0912C177.315 28.8848 177.462 28.6116 177.504 28.4841C177.573 28.2703 178.816 26.4503 178.939 26.3822C178.969 26.3657 179.125 26.1748 179.286 25.9579C179.664 25.4477 180.712 24.3908 181.596 23.6271C182.461 22.8803 186.224 20.749 187.161 20.4753C188.041 20.2184 187.891 20.0584 185.926 19.1541C176.892 14.9967 165.806 15.8088 158.141 21.1896ZM148.404 32.8322C143.466 44.2325 147.097 56.9464 157.455 64.5237L157.799 64.7754L158.161 64.3899C160.488 61.9122 163.965 59.0905 166.271 57.81C168.506 56.569 172.876 55.1898 173.95 55.3869C174.067 55.4085 174.458 55.4038 174.817 55.3766C176.335 55.2614 178.05 55.4498 179.819 55.9261C181.013 56.2473 182.588 56.7742 182.646 56.8712C182.687 56.9414 183.74 57.4605 183.878 57.479C184.031 57.4994 186.01 58.8659 185.942 58.9039C185.927 58.9124 186.099 59.0317 186.326 59.1691C186.552 59.3064 187.281 59.8436 187.945 60.3627C188.609 60.8817 189.279 61.347 189.434 61.3968C189.589 61.4466 189.731 61.5137 189.75 61.5459C189.83 61.6809 191.209 62.3033 191.728 62.4382L192.289 62.5844L193.185 61.7442C194.464 60.5451 196.391 58.206 197.066 57.0334C197.201 56.7996 197.457 56.3834 197.636 56.1087C198.513 54.7586 199.831 51.6505 200.362 49.6771C200.698 48.4287 201.022 46.6272 200.937 46.4829C200.9 46.4205 200.909 46.3476 200.957 46.321C201.144 46.2171 201.285 43.9083 201.229 41.865C201.043 35.0733 197.412 27.6509 192.052 23.1061C191.349 22.5105 191.061 22.4926 189.357 22.9407C187.134 23.5256 183.353 25.6228 182.823 26.5657C182.792 26.6199 182.67 26.7437 182.551 26.8407C181.881 27.3862 180.364 29.4399 179.931 30.3886C179.775 30.7312 179.619 31.0267 179.585 31.0455C179.524 31.0794 178.975 32.2089 178.945 32.3604C178.937 32.4039 178.71 32.8692 178.44 33.3944C178.171 33.9195 177.882 34.5182 177.798 34.7248C177.438 35.6111 175.92 37.7686 175.106 38.5518C169.13 44.2996 160.527 44.0677 153.548 37.9709C153.019 37.5085 152.528 37.0817 152.457 37.0223C152.386 36.963 152.316 36.8752 152.301 36.8274C152.286 36.7794 152.208 36.715 152.128 36.6841C151.935 36.6095 151.408 36.0384 150.511 34.9343C150.106 34.4356 149.692 33.9396 149.589 33.8319C149.487 33.7244 149.325 33.4914 149.229 33.3144C149.134 33.1373 148.944 32.8748 148.808 32.7311L148.56 32.4698L148.404 32.8322ZM166.87 60.9374C166.789 61.04 166.319 61.3785 165.826 61.6896C164.798 62.3391 164.279 62.7321 164.198 62.923C164.167 62.9963 164.106 63.0472 164.062 63.0359C164.019 63.0247 163.824 63.1579 163.629 63.3321C161.118 65.571 160.378 66.3468 160.629 66.4805C168.698 70.7909 178.904 70.6441 187.087 66.1002L189.451 64.7875L189.124 64.6403C188.944 64.5594 188.609 64.3742 188.38 64.2289C188.151 64.0835 187.877 63.9394 187.771 63.909C187.553 63.8459 186.822 63.3233 185.996 62.6404C185.201 61.9825 184.766 61.6774 184.618 61.673C184.547 61.6708 184.444 61.5921 184.389 61.498C184.285 61.3229 182.281 59.9216 182.106 59.9024C182.053 59.8966 181.721 59.7561 181.368 59.5903C179.634 58.7747 175.423 57.9894 174.759 58.3578C174.705 58.3879 174.515 58.3921 174.336 58.3671C173.041 58.1854 167.552 60.0749 166.87 60.9374Z" fill="#3BB1F9"/>
</g>
<g clip-path="url(#clip1_754_38)">
<path fill-rule="evenodd" clip-rule="evenodd" d="M115.226 6.03364C112.171 7.32681 112.318 7.06119 113.35 9.4293C114.196 11.3699 117.101 18.7758 117.083 18.9459C117.078 18.9958 115.956 18.5261 114.591 17.9019C88.9162 6.16873 64.5948 15.4405 48.5338 43.0844L47.3181 45.1765L46.6867 42.794C42.163 25.7262 29.4388 11.8329 12.7165 5.70333C10.4448 4.87066 3.53627 2.89297 3.38949 3.03366C3.29414 3.12489 2.03768 8.13263 1.98715 8.6238C1.94406 9.04233 2.18962 9.14794 4.56989 9.73276C25.906 14.9757 41.3638 33.4742 42.0001 54.5263C42.0738 56.9653 41.8197 56.7675 45.6284 57.3489L48.2499 57.7489L48.9666 56.1481C55.9186 40.6244 65.5038 28.8763 75.4851 23.6467C87.217 17.5001 102.252 18.0077 114.704 24.9707L115.796 25.5814L114.376 25.8772C113.594 26.0397 110.519 26.5518 107.542 27.0155C104.565 27.4792 102.086 27.8927 102.033 27.9349C101.887 28.0517 102.779 33.9876 102.946 34.001C103.326 34.0316 113.537 32.4267 116.043 31.9424C120.578 31.0656 127.106 29.1328 127.157 28.6514C127.176 28.472 124.923 21.8198 122.762 15.6749C121.236 11.3386 118.48 4.97958 118.12 4.96869C117.925 4.96277 116.623 5.44201 115.226 6.03364Z" fill="#3BB1F9"/>
</g>
<defs>
<clipPath id="clip0_754_38">
<rect width="54.5573" height="53.4505" fill="white" transform="matrix(0.919975 0.391977 -0.4124 0.911003 159.557 7.92139)"/>
</clipPath>
<clipPath id="clip1_754_38">
<rect width="126.836" height="58.8408" fill="white"/>
</clipPath>
</defs>
</svg>
