<svg width="460" height="172" viewBox="0 0 460 172" fill="none" xmlns="http://www.w3.org/2000/svg">
<g clip-path="url(#clip0_947_30)">
<path fill-rule="evenodd" clip-rule="evenodd" d="M346.818 46.471C338.503 52.3081 329.08 62.5663 329.979 64.8036C330.713 66.6327 335.857 73.5506 336.99 74.2346C337.217 74.3716 337.525 74.6889 337.674 74.9401C338.161 75.7599 343.571 80.6122 344.322 80.903C344.762 81.0733 346.682 82.3583 346.804 82.5638C346.878 82.6887 349.718 84.231 350.006 84.3026C350.096 84.3251 350.896 84.6473 351.785 85.0192C362.317 89.4242 373.469 86.9416 380.475 78.6323C381.457 77.4674 384.464 72.3733 384.614 71.6213C384.676 71.3086 384.809 71.0072 384.91 70.9513C385.089 70.8522 385.45 70.129 387.174 66.4253C387.636 65.4341 388.262 64.253 388.565 63.8002C388.868 63.3475 389.191 62.7483 389.283 62.4687C389.436 61.9997 392.162 58.0083 392.431 57.859C392.496 57.8228 392.838 57.404 393.191 56.9283C394.021 55.8095 396.319 53.4915 398.258 51.8167C400.154 50.179 408.408 45.5046 410.463 44.9044C412.392 44.341 412.064 43.9902 407.754 42.0069C387.941 32.8893 363.63 34.6702 346.818 46.471ZM325.463 72.0044C314.635 97.0066 322.599 124.89 345.315 141.507L346.07 142.059L346.863 141.214C351.965 135.78 359.592 129.592 364.65 126.783C369.551 124.062 379.135 121.037 381.489 121.469C381.747 121.517 382.603 121.506 383.39 121.447C386.719 121.194 390.482 121.607 394.361 122.652C396.979 123.356 400.434 124.512 400.56 124.725C400.651 124.879 402.96 126.017 403.263 126.058C403.598 126.102 407.939 129.099 407.789 129.183C407.755 129.201 408.134 129.463 408.631 129.764C409.127 130.065 410.725 131.243 412.181 132.382C413.638 133.52 415.107 134.541 415.447 134.65C415.787 134.759 416.099 134.906 416.141 134.977C416.316 135.273 419.34 136.638 420.478 136.934L421.709 137.254L423.673 135.412C426.478 132.782 430.705 127.652 432.186 125.08C432.481 124.568 433.043 123.655 433.435 123.052C435.359 120.092 438.248 113.275 439.413 108.947C440.15 106.209 440.862 102.259 440.675 101.942C440.594 101.805 440.613 101.645 440.718 101.587C441.128 101.359 441.438 96.2955 441.315 91.8145C440.908 76.9196 432.944 60.6413 421.189 50.6742C419.648 49.368 419.015 49.3287 415.28 50.3114C410.403 51.5941 402.112 56.1935 400.948 58.2614C400.881 58.3804 400.613 58.6517 400.352 58.8645C398.882 60.0609 395.557 64.5649 394.607 66.6455C394.264 67.3967 393.922 68.0449 393.848 68.0861C393.714 68.1605 392.509 70.6375 392.445 70.9698C392.427 71.0651 391.928 72.0857 391.338 73.2374C390.747 74.389 390.113 75.7021 389.929 76.1552C389.139 78.0988 385.81 82.8305 384.024 84.5483C370.918 97.1538 352.053 96.6453 336.746 83.2741C335.585 82.2602 334.509 81.3241 334.353 81.1938C334.198 81.0638 334.045 80.8712 334.011 80.7663C333.978 80.6611 333.808 80.52 333.632 80.4521C333.209 80.2886 332.052 79.0361 330.086 76.6146C329.198 75.5209 328.288 74.4332 328.064 74.197C327.839 73.9611 327.484 73.4501 327.275 73.062C327.065 72.6736 326.649 72.098 326.35 71.7827L325.807 71.2097L325.463 72.0044ZM365.962 133.642C365.784 133.867 364.754 134.61 363.674 135.292C361.417 136.716 360.279 137.578 360.102 137.997C360.033 138.158 359.9 138.269 359.805 138.245C359.71 138.22 359.282 138.512 358.854 138.894C353.347 143.804 351.726 145.506 352.275 145.799C369.97 155.252 392.354 154.93 410.3 144.965L415.484 142.086L414.767 141.763C414.372 141.586 413.638 141.18 413.136 140.861C412.633 140.542 412.033 140.226 411.801 140.159C411.323 140.021 409.719 138.875 407.908 137.377C406.164 135.934 405.211 135.265 404.886 135.256C404.731 135.251 404.505 135.078 404.383 134.872C404.156 134.488 399.76 131.415 399.377 131.372C399.261 131.36 398.532 131.052 397.758 130.688C393.954 128.899 384.719 127.177 383.264 127.985C383.145 128.051 382.728 128.06 382.336 128.005C379.495 127.607 367.459 131.751 365.962 133.642Z" fill="#D62839"/>
</g>
<g clip-path="url(#clip1_947_30)">
<path fill-rule="evenodd" clip-rule="evenodd" d="M252.704 13.2328C246.004 16.0689 246.326 15.4863 248.591 20.6799C250.446 24.9358 256.817 41.1778 256.777 41.5509C256.765 41.6602 254.305 40.6301 251.311 39.2612C195.004 13.5291 141.665 33.8631 106.441 94.489L103.775 99.0773L102.39 93.8523C92.4693 56.4207 64.5639 25.9513 27.8901 12.5084C22.908 10.6823 7.75697 6.34498 7.43506 6.65353C7.22594 6.85362 4.47039 17.8361 4.35958 18.9133C4.26507 19.8312 4.80362 20.0628 10.0238 21.3454C56.816 32.8438 90.7166 73.4129 92.112 119.582C92.2739 124.931 91.7164 124.498 100.069 125.773L105.819 126.65L107.39 123.139C122.637 89.094 143.658 63.3292 165.548 51.8602C191.277 38.38 224.251 39.4931 251.559 54.7638L253.954 56.1033L250.839 56.7518C249.126 57.1082 242.382 58.2313 235.853 59.2482C229.324 60.2652 223.887 61.1722 223.771 61.2646C223.45 61.5208 225.407 74.5388 225.772 74.5683C226.606 74.6354 249 71.1156 254.496 70.0534C264.442 68.1306 278.758 63.8918 278.871 62.836C278.913 62.4426 273.971 47.8535 269.231 34.3771C265.886 24.8671 259.84 10.9212 259.051 10.8973C258.624 10.8843 255.768 11.9353 252.704 13.2328Z" fill="#D62839"/>
</g>
<defs>
<clipPath id="clip0_947_30">
<rect width="119.65" height="117.223" fill="white" transform="matrix(0.919975 0.391978 -0.4124 0.911003 349.925 17.3721)"/>
</clipPath>
<clipPath id="clip1_947_30">
<rect width="278.165" height="129.044" fill="white"/>
</clipPath>
</defs>
</svg>
